<?xml version="1.0" encoding="utf-8"?>
<!-- Generator: Adobe Illustrator 22.1.0, SVG Export Plug-In . SVG Version: 6.00 Build 0)  -->
<svg version="1.1" id="Layer_1" xmlns="http://www.w3.org/2000/svg" xmlns:xlink="http://www.w3.org/1999/xlink" x="0px" y="0px"
	 width="448px" height="512px" viewBox="0 0 448 512" style="enable-background:new 0 0 448 512;" xml:space="preserve">
<style type="text/css">
	.st0{fill:#FFFFFF;}
</style>
<path class="st0" d="M144,479H48c-26.5,0-48-21.5-48-48V79c0-26.5,21.5-48,48-48h96c26.5,0,48,21.5,48,48v352
	C192,457.5,170.5,479,144,479z M448,431V79c0-26.5-21.5-48-48-48h-96c-26.5,0-48,21.5-48,48v352c0,26.5,21.5,48,48,48h96
	C426.5,479,448,457.5,448,431z"/>
</svg>
