<svg width="164" height="45" xmlns="http://www.w3.org/2000/svg" xmlns:xlink="http://www.w3.org/1999/xlink" xml:space="preserve" overflow="hidden"><g transform="translate(-760 -469)"><g><g><g><g><path d="M1.4376 28.1643 6.61397 28.1643 3.27718 43.9216 3.64679 44 6.99892 28.1643 12.5705 28.1643 12.5705 39.2392 12.9486 39.2392 12.9486 28.1643 18.5218 28.1643 21.874 44 22.2419 43.9216 18.9068 28.1643 24.0814 28.1643 24.0814 27.7862 1.4376 27.7862 1.4376 28.1643Z" fill="#782F40" fill-rule="nonzero" fill-opacity="1" transform="matrix(1.00291 0 0 1 760.079 470)"/><path d="M24.5976 7.73645 14.5821 7.73645 12.9452 0 12.5756 0 10.9387 7.73645 0.923196 7.73645 0 26.9004 25.5208 26.9004 24.5976 7.73645ZM14.1971 7.73645 12.9486 7.73645 12.9486 1.84128 14.1971 7.73645ZM12.5722 1.84128 12.5722 7.73645 11.3236 7.73645 12.5722 1.84128ZM2.74744 9.47553 22.6115 9.47553 22.7495 12.2145 2.60777 12.2145 2.74744 9.47553ZM14.7422 17.1984 14.7422 17.5765 10.6116 17.5765 10.6116 17.1984 14.7422 17.1984ZM6.46748 21.2914 2.27733 21.2914 2.27733 20.9133 6.46748 20.9133 6.46748 21.2914ZM6.58842 15.5427 2.47832 15.5427 2.47832 15.1646 6.58842 15.1646 6.58842 15.5427ZM8.49783 25.0115 8.1214 25.0063 8.2781 14.3368 8.65454 14.3419 8.49783 25.0115ZM14.7831 22.8772 10.5674 22.8772 10.5674 22.4991 14.7831 22.4991 14.7831 22.8772ZM16.8509 25.0115 16.701 14.3419 17.0774 14.3368 17.2273 25.0063 16.8509 25.0115ZM18.5729 15.1663 22.683 15.1663 22.683 15.5444 18.5729 15.5444 18.5729 15.1663ZM22.8772 21.2931 18.6871 21.2931 18.6871 20.915 22.8772 20.915 22.8772 21.2931Z" fill="#782F40" fill-rule="nonzero" fill-opacity="1" transform="matrix(1.00291 0 0 1 760.079 470)"/><path d="M41.5677 12.2332C41.4706 12.3439 41.2202 12.3575 41.1214 12.2605 40.8846 11.3832 40.2578 10.2267 38.4199 10.2267 36.5821 10.2267 34.8685 11.4803 34.8685 14.3351 34.8685 17.1898 36.72 18.7501 38.517 18.7501 40.314 18.7501 41.0379 17.5799 41.428 16.6754 41.554 16.5494 41.7755 16.6056 41.8453 16.7317 41.7482 17.6651 41.3718 18.5832 41.1776 18.8489 41.0107 18.8761 40.8438 18.9323 40.6905 18.9749 40.3839 19.072 39.4232 19.3088 38.5187 19.3088 37.1408 19.3088 35.957 19.0294 34.9537 18.3753 33.8261 17.6378 32.9762 16.3705 32.9762 14.5463 32.9762 12.9179 33.7001 11.649 34.7306 10.8569 35.7611 10.0768 37.168 9.67312 38.5732 9.67312 39.367 9.67312 40.3277 9.81279 40.9817 9.97972L41.3718 10.0632C41.399 10.3834 41.428 11.2044 41.5677 12.2349Z" fill="#782F40" fill-rule="nonzero" fill-opacity="1" transform="matrix(1.00291 0 0 1 760.079 470)"/><path d="M44.4088 11.8994C44.4088 10.4226 44.2828 10.3681 43.6287 10.2846L43.4055 10.2574C43.3085 10.1603 43.3221 9.90818 43.4328 9.85367 43.9625 9.88092 44.6166 9.89625 45.2298 9.89625L47.8904 9.89625C48.7812 9.89625 49.5886 9.88263 49.7708 9.85367 49.827 10.0904 49.9105 11.1908 49.994 11.7903 49.9378 11.9011 49.6601 11.93 49.5477 11.8465 49.3246 11.0392 49.1168 10.7053 48.6705 10.5793 48.3503 10.4958 47.933 10.4549 47.5565 10.4549L46.6231 10.4549C46.0252 10.4549 46.0252 10.4822 46.0252 11.2759L46.0252 13.6299C46.0252 13.991 46.0389 14.0063 46.3591 14.0063L47.0268 14.0063C48.2378 14.0063 48.4473 13.9927 48.5734 13.3932L48.6705 12.9196C48.7812 12.8225 49.0469 12.8225 49.1168 12.9333 49.1031 13.3097 49.0742 13.8105 49.0742 14.3249 49.0742 14.8393 49.1014 15.3417 49.1168 15.788 49.0469 15.8851 48.7829 15.8851 48.6705 15.8016L48.5734 15.2447C48.4763 14.6604 48.2395 14.6315 47.0268 14.6315L46.3591 14.6315C46.0389 14.6315 46.0252 14.6587 46.0252 15.0079L46.0252 16.7759C46.0252 17.4862 46.0525 17.987 46.262 18.2238 46.4289 18.4179 46.6657 18.5167 47.8359 18.5303 49.6039 18.544 49.9105 18.1539 50.3976 17.0263 50.5237 16.9292 50.7605 16.9701 50.8439 17.1098 50.7605 17.694 50.4539 18.7535 50.2597 19.1299 49.6465 19.1027 48.4491 19.0873 46.8207 19.0873L45.2332 19.0873C44.62 19.0873 43.7718 19.101 43.1449 19.1299 43.0342 19.0737 43.0206 18.8233 43.1177 18.7262L43.6321 18.67C44.2862 18.6002 44.4122 18.5576 44.4122 17.0825L44.4122 11.9028Z" fill="#782F40" fill-rule="nonzero" fill-opacity="1" transform="matrix(1.00291 0 0 1 760.079 470)"/><path d="M55.5485 14.6281C54.8382 14.6281 54.7973 14.6553 54.7973 15.0317L54.7973 17.0791C54.7973 18.5559 54.9216 18.5832 55.5774 18.6666L55.9947 18.7228C56.0918 18.8199 56.0782 19.0703 55.9675 19.1265 55.2436 19.0993 54.6168 19.0839 54.0036 19.0839 53.3904 19.0839 52.7635 19.0976 52.2355 19.1265 52.1248 19.0703 52.1095 18.8199 52.2083 18.7228L52.4024 18.6956C53.0565 18.5985 53.1826 18.5559 53.1826 17.0808L53.1826 11.9011C53.1826 10.4243 53.0565 10.3834 52.4024 10.2999L52.0959 10.2591C51.9988 10.1892 52.0124 9.90988 52.1231 9.85537 52.7363 9.88263 53.3904 9.89796 54.0036 9.89796 54.6168 9.89796 55.2436 9.88433 55.7869 9.85537 55.8976 9.91158 55.913 10.1892 55.8142 10.2591L55.5774 10.2999C54.9234 10.4124 54.7973 10.426 54.7973 11.9011L54.7973 13.5856C54.7973 13.9757 54.8382 14.0029 55.5485 14.0029L58.8069 14.0029C59.5172 14.0029 59.5581 13.9757 59.5581 13.5856L59.5581 11.9011C59.5581 10.4243 59.432 10.3834 58.7779 10.2999L58.4714 10.2591C58.3743 10.1892 58.3879 9.90988 58.4986 9.85537 59.1391 9.88263 59.7659 9.89796 60.3791 9.89796 60.9923 9.89796 61.6191 9.88433 62.1761 9.85537 62.2868 9.91158 62.3021 10.1892 62.2033 10.2591L61.9529 10.2999C61.2989 10.4124 61.1728 10.426 61.1728 11.9011L61.1728 17.0808C61.1728 18.5576 61.2989 18.5985 61.9529 18.6819L62.2595 18.7245C62.3566 18.8216 62.343 19.072 62.2323 19.1282 61.6191 19.101 60.9923 19.0856 60.3808 19.0856 59.7693 19.0856 59.1135 19.0993 58.5003 19.1282 58.3896 19.072 58.376 18.8216 58.4731 18.7245L58.7797 18.6819C59.4337 18.5985 59.5598 18.5559 59.5598 17.0808L59.5598 15.0334C59.5598 14.657 59.5172 14.6298 58.8086 14.6298L55.5502 14.6298Z" fill="#782F40" fill-rule="nonzero" fill-opacity="1" transform="matrix(1.00291 0 0 1 760.079 470)"/><path d="M67.5534 14.6281C66.8431 14.6281 66.8023 14.6553 66.8023 15.0317L66.8023 17.0791C66.8023 18.5559 66.9266 18.5832 67.5824 18.6666L67.9997 18.7228C68.0968 18.8199 68.0832 19.0703 67.9724 19.1265 67.2485 19.0993 66.6217 19.0839 66.0085 19.0839 65.3953 19.0839 64.7685 19.0976 64.2405 19.1265 64.1298 19.0703 64.1144 18.8199 64.2132 18.7228L64.4074 18.6956C65.0615 18.5985 65.1875 18.5559 65.1875 17.0808L65.1875 11.9011C65.1875 10.4243 65.0615 10.3834 64.4074 10.2999L64.1008 10.2591C64.0037 10.1892 64.0173 9.90988 64.1281 9.85537 64.7412 9.88263 65.3953 9.89796 66.0085 9.89796 66.6217 9.89796 67.2485 9.88433 67.7919 9.85537 67.9026 9.91158 67.9179 10.1892 67.8191 10.2591L67.5824 10.2999C66.9283 10.4124 66.8023 10.426 66.8023 11.9011L66.8023 13.5856C66.8023 13.9757 66.8431 14.0029 67.5534 14.0029L70.8119 14.0029C71.5221 14.0029 71.563 13.9757 71.563 13.5856L71.563 11.9011C71.563 10.4243 71.437 10.3834 70.7829 10.2999L70.4763 10.2591C70.3792 10.1892 70.3928 9.90988 70.5036 9.85537 71.144 9.88263 71.7708 9.89796 72.384 9.89796 72.9972 9.89796 73.624 9.88433 74.181 9.85537 74.2917 9.91158 74.3071 10.1892 74.2083 10.2591L73.9579 10.2999C73.3038 10.4124 73.1778 10.426 73.1778 11.9011L73.1778 17.0808C73.1778 18.5576 73.3038 18.5985 73.9579 18.6819L74.2645 18.7245C74.3616 18.8216 74.3479 19.072 74.2372 19.1282 73.624 19.101 72.9972 19.0856 72.3857 19.0856 71.7742 19.0856 71.1185 19.0993 70.5053 19.1282 70.3945 19.072 70.3809 18.8216 70.478 18.7245L70.7846 18.6819C71.4387 18.5985 71.5647 18.5559 71.5647 17.0808L71.5647 15.0334C71.5647 14.657 71.5221 14.6298 70.8136 14.6298L67.5551 14.6298Z" fill="#782F40" fill-rule="nonzero" fill-opacity="1" transform="matrix(1.00291 0 0 1 760.079 470)"/><path d="M76.4652 18.7228C76.2148 18.4299 76.0325 17.4692 76.0479 16.6056 76.1313 16.4659 76.3681 16.4523 76.4788 16.5494 76.7292 17.2597 77.482 18.7501 78.8464 18.7501 79.9042 18.7501 80.5037 18.1096 80.5037 17.2597 80.5037 16.4659 80.1273 15.8255 79.0832 15.2395L78.4836 14.9057C77.4395 14.3198 76.5197 13.4715 76.5197 12.2179 76.5197 10.8399 77.5502 9.66971 79.5839 9.66971 80.3078 9.66971 80.8376 9.83664 81.4916 9.96268 81.6449 10.2693 81.7846 11.1874 81.7846 11.8431 81.7148 11.9675 81.4644 11.9828 81.3383 11.884 81.1288 11.1601 80.6417 10.2267 79.4579 10.2267 78.3439 10.2267 77.884 10.9506 77.884 11.6881 77.884 12.2741 78.2877 12.8992 79.2075 13.388L80.0711 13.8479C80.9755 14.3215 81.9788 15.185 81.9788 16.592 81.9788 18.1795 80.7677 19.3071 78.7476 19.3071 77.4667 19.3071 76.7428 18.8897 76.4635 18.7228Z" fill="#782F40" fill-rule="nonzero" fill-opacity="1" transform="matrix(1.00291 0 0 1 760.079 470)"/><path d="M89.0135 11.9828C89.0135 10.6457 88.9998 10.4788 88.3458 10.409L87.983 10.3664C87.8859 10.2693 87.8859 10.0461 87.9966 9.97631 88.8738 9.89285 90.0576 9.85026 91.1988 9.85026 92.34 9.85026 93.2326 9.98993 93.8441 10.3238 94.5544 10.7002 95.0688 11.3543 95.0688 12.3575 95.0688 13.6384 94.0808 14.2789 93.3978 14.5582 93.3143 14.6008 93.3416 14.7115 93.3978 14.795 94.5118 16.6754 95.2084 17.8592 95.8625 18.4026 96.2526 18.7365 96.6562 18.8199 96.8232 18.8335 96.893 18.8897 96.893 19.043 96.8504 19.1129 96.6835 19.1555 96.4195 19.1963 95.9306 19.1963 94.5935 19.1963 93.8696 18.653 93.0197 17.3585 92.6432 16.7725 92.2532 16.0077 91.9193 15.4644 91.6689 15.0471 91.5156 14.9909 91.0557 14.9909 90.6384 14.9909 90.6248 15.0045 90.6248 15.2975L90.6248 17.0808C90.6248 18.5576 90.7492 18.5985 91.4049 18.6819L91.7115 18.7245C91.8086 18.8216 91.795 19.072 91.6843 19.1282 91.0711 19.101 90.4443 19.0856 89.8328 19.0856 89.2213 19.0856 88.5928 19.0993 87.9523 19.1282 87.8416 19.072 87.799 18.8216 87.9251 18.7245L88.2317 18.6819C88.8857 18.5985 89.0118 18.5559 89.0118 17.0808L89.0118 11.9845ZM90.6282 13.9876C90.6282 14.4339 90.6282 14.4611 91.2959 14.4611 92.6603 14.4611 93.2871 13.7934 93.2871 12.47 93.2871 11.3696 92.5768 10.409 91.3658 10.409 90.6418 10.409 90.6282 10.4515 90.6282 11.092L90.6282 13.9893Z" fill="#782F40" fill-rule="nonzero" fill-opacity="1" transform="matrix(1.00291 0 0 1 760.079 470)"/><path d="M98.845 11.8994C98.845 10.4226 98.719 10.3681 98.0649 10.2846L97.8417 10.2574C97.7447 10.1603 97.7583 9.90818 97.869 9.85367 98.3987 9.88092 99.0528 9.89625 99.666 9.89625L102.327 9.89625C103.217 9.89625 104.025 9.88263 104.207 9.85367 104.263 10.0904 104.347 11.1908 104.43 11.7903 104.374 11.9011 104.096 11.93 103.984 11.8465 103.761 11.0392 103.553 10.7053 103.107 10.5793 102.786 10.4958 102.369 10.4549 101.993 10.4549L101.059 10.4549C100.461 10.4549 100.461 10.4822 100.461 11.2759L100.461 13.6299C100.461 13.991 100.475 14.0063 100.795 14.0063L101.463 14.0063C102.674 14.0063 102.884 13.9927 103.01 13.3932L103.107 12.9196C103.217 12.8225 103.483 12.8225 103.553 12.9333 103.539 13.3097 103.51 13.8105 103.51 14.3249 103.51 14.8393 103.538 15.3417 103.553 15.788 103.483 15.8851 103.219 15.8851 103.107 15.8016L103.01 15.2447C102.913 14.6604 102.676 14.6315 101.463 14.6315L100.795 14.6315C100.475 14.6315 100.461 14.6587 100.461 15.0079L100.461 16.7759C100.461 17.4862 100.489 17.987 100.698 18.2238 100.865 18.4179 101.102 18.5167 102.272 18.5303 104.04 18.544 104.347 18.1539 104.834 17.0263 104.96 16.9292 105.197 16.9701 105.28 17.1098 105.197 17.694 104.89 18.7535 104.696 19.1299 104.083 19.1027 102.885 19.0873 101.257 19.0873L99.6694 19.0873C99.0562 19.0873 98.208 19.101 97.5811 19.1299 97.4704 19.0737 97.4568 18.8233 97.5539 18.7262L98.0683 18.67C98.7224 18.6002 98.8484 18.5576 98.8484 17.0825L98.8484 11.9028Z" fill="#782F40" fill-rule="nonzero" fill-opacity="1" transform="matrix(1.00291 0 0 1 760.079 470)"/><path d="M106.893 18.7228C106.643 18.4299 106.462 17.4692 106.476 16.6056 106.559 16.4659 106.796 16.4523 106.907 16.5494 107.157 17.2597 107.91 18.7501 109.274 18.7501 110.334 18.7501 110.932 18.1096 110.932 17.2597 110.932 16.4659 110.555 15.8255 109.511 15.2395L108.913 14.9057C107.869 14.3198 106.949 13.4715 106.949 12.2179 106.949 10.8399 107.98 9.66971 110.014 9.66971 110.738 9.66971 111.267 9.83664 111.921 9.96268 112.075 10.2693 112.214 11.1874 112.214 11.8431 112.144 11.9675 111.894 11.9828 111.768 11.884 111.559 11.1601 111.071 10.2267 109.888 10.2267 108.774 10.2267 108.314 10.9506 108.314 11.6881 108.314 12.2741 108.717 12.8992 109.637 13.388L110.501 13.8479C111.405 14.3215 112.408 15.185 112.408 16.592 112.408 18.1795 111.197 19.3071 109.177 19.3071 107.896 19.3071 107.173 18.8897 106.893 18.7228Z" fill="#782F40" fill-rule="nonzero" fill-opacity="1" transform="matrix(1.00291 0 0 1 760.079 470)"/><path d="M115.333 11.8994C115.333 10.4226 115.207 10.3681 114.553 10.2846L114.33 10.2574C114.233 10.1603 114.246 9.90818 114.357 9.85367 114.887 9.88092 115.541 9.89625 116.154 9.89625L118.815 9.89625C119.705 9.89625 120.515 9.88263 120.695 9.85367 120.751 10.0904 120.835 11.1908 120.918 11.7903 120.862 11.9011 120.584 11.93 120.472 11.8465 120.249 11.0392 120.041 10.7053 119.595 10.5793 119.275 10.4958 118.857 10.4549 118.481 10.4549L117.547 10.4549C116.95 10.4549 116.95 10.4822 116.95 11.2759L116.95 13.6299C116.95 13.991 116.963 14.0063 117.283 14.0063L117.951 14.0063C119.162 14.0063 119.372 13.9927 119.498 13.3932L119.595 12.9196C119.705 12.8225 119.971 12.8225 120.041 12.9333 120.027 13.3097 119.998 13.8105 119.998 14.3249 119.998 14.8393 120.026 15.3417 120.041 15.788 119.971 15.8851 119.707 15.8851 119.595 15.8016L119.498 15.2447C119.401 14.6604 119.164 14.6315 117.951 14.6315L117.283 14.6315C116.963 14.6315 116.95 14.6587 116.95 15.0079L116.95 16.7759C116.95 17.4862 116.977 17.987 117.186 18.2238 117.353 18.4179 117.59 18.5167 118.76 18.5303 120.53 18.544 120.835 18.1539 121.322 17.0263 121.446 16.9292 121.683 16.9701 121.768 17.1098 121.685 17.694 121.378 18.7535 121.184 19.1299 120.571 19.1027 119.373 19.0873 117.743 19.0873L116.156 19.0873C115.543 19.0873 114.694 19.101 114.068 19.1299 113.955 19.0737 113.941 18.8233 114.04 18.7262L114.555 18.67C115.209 18.6002 115.335 18.5576 115.335 17.0825L115.335 11.9028Z" fill="#782F40" fill-rule="nonzero" fill-opacity="1" transform="matrix(1.00291 0 0 1 760.079 470)"/><path d="M125.275 15.6722C124.914 15.6722 124.928 15.6722 124.802 16.0486L124.245 17.7196C123.965 18.5406 124.148 18.5695 124.662 18.653L125.066 18.7228C125.163 18.8199 125.149 19.0703 125.039 19.1265 124.592 19.0993 124.064 19.0993 123.492 19.0839 123.032 19.0839 122.601 19.0976 122.114 19.1265 122.017 19.0567 122.003 18.8472 122.1 18.7228L122.518 18.653C122.921 18.5832 123.075 18.4724 123.284 18.0125 123.451 17.6497 123.674 17.0655 123.967 16.3126L125.875 11.356C126.042 10.9097 126.181 10.5759 126.139 10.3391 126.626 10.242 127.086 9.67142 127.113 9.67142 127.224 9.67142 127.294 9.714 127.35 9.78383 127.573 10.4107 127.754 11.0647 127.977 11.6915L129.982 17.5271C130.302 18.4605 130.372 18.544 131.082 18.6836L131.291 18.7262C131.404 18.8233 131.404 19.0601 131.305 19.1299 130.734 19.1027 130.218 19.0873 129.494 19.0873 128.897 19.0873 128.283 19.1146 127.796 19.1299 127.684 19.0601 127.67 18.8097 127.754 18.7262L128.06 18.6836C128.561 18.6138 128.631 18.5303 128.421 17.9461L127.767 16.052C127.641 15.6756 127.587 15.6756 127.197 15.6756L125.275 15.6756ZM127.016 15.0454C127.406 15.0454 127.462 15.0181 127.35 14.6843L126.764 13.0133C126.514 12.2758 126.43 11.9556 126.36 11.8568L126.333 11.8568C126.277 11.9539 126.139 12.3575 125.902 13.0133L125.275 14.6434C125.136 15.0471 125.165 15.0471 125.498 15.0471L127.016 15.0471Z" fill="#782F40" fill-rule="nonzero" fill-opacity="1" transform="matrix(1.00291 0 0 1 760.079 470)"/><path d="M133.535 11.9828C133.535 10.6457 133.521 10.4788 132.867 10.409L132.504 10.3664C132.407 10.2693 132.407 10.0461 132.518 9.97631 133.395 9.89285 134.579 9.85026 135.722 9.85026 136.865 9.85026 137.755 9.98993 138.367 10.3238 139.077 10.7002 139.593 11.3543 139.593 12.3575 139.593 13.6384 138.604 14.2789 137.922 14.5582 137.839 14.6008 137.866 14.7115 137.922 14.795 139.036 16.6754 139.733 17.8592 140.387 18.4026 140.777 18.7365 141.181 18.8199 141.348 18.8335 141.418 18.8897 141.418 19.043 141.375 19.1129 141.208 19.1555 140.944 19.1963 140.455 19.1963 139.118 19.1963 138.394 18.653 137.544 17.3585 137.168 16.7725 136.778 16.0077 136.444 15.4644 136.194 15.0471 136.04 14.9909 135.58 14.9909 135.163 14.9909 135.149 15.0045 135.149 15.2975L135.149 17.0808C135.149 18.5576 135.274 18.5985 135.93 18.6819L136.236 18.7245C136.333 18.8216 136.32 19.072 136.209 19.1282 135.596 19.101 134.969 19.0856 134.357 19.0856 133.746 19.0856 133.117 19.0993 132.477 19.1282 132.365 19.072 132.324 18.8216 132.45 18.7245L132.756 18.6819C133.41 18.5985 133.536 18.5559 133.536 17.0808L133.536 11.9845ZM135.149 13.9876C135.149 14.4339 135.149 14.4611 135.817 14.4611 137.181 14.4611 137.808 13.7934 137.808 12.47 137.808 11.3696 137.098 10.409 135.887 10.409 135.163 10.409 135.149 10.4515 135.149 11.092L135.149 13.9893Z" fill="#782F40" fill-rule="nonzero" fill-opacity="1" transform="matrix(1.00291 0 0 1 760.079 470)"/><path d="M150.386 12.2332C150.288 12.3439 150.036 12.3575 149.939 12.2605 149.703 11.3832 149.076 10.2267 147.238 10.2267 145.4 10.2267 143.686 11.4803 143.686 14.3351 143.686 17.1898 145.538 18.7501 147.335 18.7501 149.132 18.7501 149.856 17.5799 150.246 16.6754 150.372 16.5494 150.595 16.6056 150.663 16.7317 150.566 17.6651 150.19 18.5832 149.996 18.8489 149.829 18.8761 149.662 18.9323 149.508 18.9749 149.202 19.072 148.241 19.3088 147.337 19.3088 145.959 19.3088 144.775 19.0294 143.772 18.3753 142.644 17.6378 141.794 16.3705 141.794 14.5463 141.794 12.9179 142.518 11.649 143.548 10.8569 144.579 10.0768 145.986 9.67312 147.393 9.67312 148.187 9.67312 149.147 9.81279 149.801 9.97972L150.191 10.0632C150.219 10.3834 150.248 11.2044 150.386 12.2349Z" fill="#782F40" fill-rule="nonzero" fill-opacity="1" transform="matrix(1.00291 0 0 1 760.079 470)"/><path d="M155.593 14.6281C154.882 14.6281 154.84 14.6553 154.84 15.0317L154.84 17.0791C154.84 18.5559 154.966 18.5832 155.62 18.6666L156.037 18.7228C156.134 18.8199 156.121 19.0703 156.01 19.1265 155.286 19.0993 154.659 19.0839 154.046 19.0839 153.433 19.0839 152.806 19.0976 152.278 19.1265 152.166 19.0703 152.152 18.8199 152.251 18.7228L152.445 18.6956C153.099 18.5985 153.225 18.5559 153.225 17.0808L153.225 11.9011C153.225 10.4243 153.099 10.3834 152.445 10.2999L152.138 10.2591C152.041 10.1892 152.055 9.90988 152.166 9.85537 152.779 9.88263 153.433 9.89796 154.046 9.89796 154.659 9.89796 155.286 9.88433 155.829 9.85537 155.94 9.91158 155.954 10.1892 155.857 10.2591L155.62 10.2999C154.966 10.4124 154.84 10.426 154.84 11.9011L154.84 13.5856C154.84 13.9757 154.882 14.0029 155.593 14.0029L158.851 14.0029C159.561 14.0029 159.604 13.9757 159.604 13.5856L159.604 11.9011C159.604 10.4243 159.478 10.3834 158.824 10.2999L158.517 10.2591C158.42 10.1892 158.434 9.90988 158.544 9.85537 159.185 9.88263 159.812 9.89796 160.425 9.89796 161.038 9.89796 161.665 9.88433 162.222 9.85537 162.334 9.91158 162.348 10.1892 162.249 10.2591L161.999 10.2999C161.345 10.4124 161.219 10.426 161.219 11.9011L161.219 17.0808C161.219 18.5576 161.343 18.5985 161.999 18.6819L162.305 18.7245C162.402 18.8216 162.389 19.072 162.278 19.1282 161.665 19.101 161.038 19.0856 160.427 19.0856 159.815 19.0856 159.159 19.0993 158.546 19.1282 158.434 19.072 158.42 18.8216 158.519 18.7245L158.825 18.6819C159.48 18.5985 159.606 18.5559 159.606 17.0808L159.606 15.0334C159.606 14.657 159.563 14.6298 158.853 14.6298L155.594 14.6298Z" fill="#782F40" fill-rule="nonzero" fill-opacity="1" transform="matrix(1.00291 0 0 1 760.079 470)"/><path d="M33.4139 35.8139C33.8534 38.1951 35.5669 39.4709 38.0742 39.4709 40.7075 39.4709 42.3784 38.1542 42.3784 35.9808 42.3784 33.8074 41.4808 32.9302 38.0742 32.0104 35.107 31.2166 33.7069 30.3599 33.7069 28.1864 33.7069 26.013 35.3574 24.7185 38.0112 24.7185 41.2287 24.7185 42.3154 26.6415 42.5454 28.2716L42.1281 28.2716C41.7516 26.3281 40.435 25.0949 37.9907 25.0949 35.7134 25.0949 34.1463 26.1186 34.1463 28.1456 34.1463 30.0465 35.2739 30.8623 38.1168 31.5931 42.0242 32.5963 42.8179 33.8908 42.8179 35.9399 42.8179 38.3433 41.0209 39.8473 38.0537 39.8473 35.0866 39.8473 33.3935 38.2377 32.9762 35.8139L33.4156 35.8139Z" fill="#782F40" fill-rule="nonzero" fill-opacity="1" transform="matrix(1.00291 0 0 1 760.079 470)"/><path d="M46.1394 24.928 46.5567 24.928 46.5567 31.5931 56.2519 31.5931 56.2519 24.928 56.6693 24.928 56.6693 39.6378 56.2519 39.6378 56.2519 31.9695 46.5567 31.9695 46.5567 39.6378 46.1394 39.6378 46.1394 24.928Z" fill="#782F40" fill-rule="nonzero" fill-opacity="1" transform="matrix(1.00291 0 0 1 760.079 470)"/><path d="M73.033 32.1569C73.033 36.3351 70.88 39.8456 66.4718 39.8456 62.4179 39.8456 60.0367 36.502 60.0367 32.2812 60.0367 28.0604 62.3345 24.7168 66.5979 24.7168 70.5887 24.7168 73.033 28.0382 73.033 32.1552ZM60.4745 32.2403C60.4745 36.0012 62.4588 39.4709 66.4718 39.4709 70.4848 39.4709 72.5935 36.2329 72.5935 32.179 72.5935 28.3346 70.3792 25.0949 66.5757 25.0949 62.7722 25.0949 60.4745 28.2716 60.4745 32.242Z" fill="#782F40" fill-rule="nonzero" fill-opacity="1" transform="matrix(1.00291 0 0 1 760.079 470)"/><path d="M79.1343 39.6378 74.9969 24.928 75.4364 24.928C76.5639 28.9393 79.2399 38.3212 79.4272 39.2614L79.4477 39.2614C79.8036 37.9038 82.6652 28.5833 83.6889 24.928L84.3157 24.928C85.382 28.6259 88.264 38.4472 88.4531 39.2409L88.4735 39.2409C88.976 37.5904 91.7115 28.6259 92.8613 24.928L93.3007 24.928 88.7461 39.6378 88.1397 39.6378C87.0955 35.8769 84.2118 26.1391 84.0023 25.2414L83.9819 25.2414C83.7111 26.432 80.9517 35.5635 79.7185 39.6378L79.1325 39.6378Z" fill="#782F40" fill-rule="nonzero" fill-opacity="1" transform="matrix(1.00291 0 0 1 760.079 470)"/><path d="M107.092 35.7509C106.445 37.7574 104.982 39.8456 101.514 39.8456 97.2507 39.8456 95.1829 36.4816 95.1829 32.3647 95.1829 28.2478 97.2524 24.7168 101.64 24.7168 104.481 24.7168 106.445 26.3469 107.072 29.0211L106.633 29.0211C106.026 26.6807 104.272 25.1137 101.638 25.1137 97.4176 25.1137 95.6206 28.4981 95.6206 32.3647 95.6206 36.0217 97.4381 39.4487 101.535 39.4487 104.376 39.4487 105.944 37.8391 106.655 35.7509L107.094 35.7509Z" fill="#782F40" fill-rule="nonzero" fill-opacity="1" transform="matrix(1.00291 0 0 1 760.079 470)"/><path d="M111.586 33.913 109.392 39.6378 108.952 39.6378 114.594 24.928 115.033 24.928 120.905 39.6378 120.445 39.6378 118.167 33.913 111.586 33.913ZM118 33.5365C116.14 28.8763 115.096 26.0982 114.803 25.3657L114.783 25.3657C114.636 25.9091 113.195 29.7126 111.732 33.5365L118 33.5365Z" fill="#782F40" fill-rule="nonzero" fill-opacity="1" transform="matrix(1.00291 0 0 1 760.079 470)"/><path d="M123.351 35.8139C123.79 38.1951 125.504 39.4709 128.009 39.4709 130.642 39.4709 132.313 38.1542 132.313 35.9808 132.313 33.8074 131.416 32.9302 128.009 32.0104 125.042 31.2166 123.642 30.3599 123.642 28.1864 123.642 26.013 125.292 24.7185 127.946 24.7185 131.164 24.7185 132.25 26.6415 132.48 28.2716L132.063 28.2716C131.687 26.3281 130.37 25.0949 127.926 25.0949 125.648 25.0949 124.081 26.1186 124.081 28.1456 124.081 30.0465 125.209 30.8623 128.052 31.5931 131.959 32.5963 132.753 33.8908 132.753 35.9399 132.753 38.3433 130.956 39.8473 127.989 39.8473 125.022 39.8473 123.33 38.2377 122.911 35.8139L123.351 35.8139Z" fill="#782F40" fill-rule="nonzero" fill-opacity="1" transform="matrix(1.00291 0 0 1 760.079 470)"/><path d="M144.497 32.0308 136.495 32.0308 136.495 39.2614 145.209 39.2614 145.126 39.6378 136.078 39.6378 136.078 24.928 144.916 24.928 144.916 25.3044 136.495 25.3044 136.495 31.6561 144.497 31.6561 144.497 32.0325Z" fill="#782F40" fill-rule="nonzero" fill-opacity="1" transform="matrix(1.00291 0 0 1 760.079 470)"/></g></g></g></g></g></svg>