<svg width="557" height="337" xmlns="http://www.w3.org/2000/svg" xmlns:xlink="http://www.w3.org/1999/xlink" xml:space="preserve" overflow="hidden"><defs><clipPath id="clip0"><rect x="201" y="61" width="557" height="337"/></clipPath><clipPath id="clip1"><rect x="201" y="61" width="557" height="337"/></clipPath><clipPath id="clip2"><rect x="202" y="62" width="556" height="336"/></clipPath><clipPath id="clip3"><rect x="202" y="62" width="556" height="336"/></clipPath><clipPath id="clip4"><rect x="202" y="62" width="556" height="336"/></clipPath></defs><g clip-path="url(#clip0)" transform="translate(-201 -61)"><g clip-path="url(#clip1)"><g clip-path="url(#clip2)"><g clip-path="url(#clip3)"><g clip-path="url(#clip4)"><path d="M228.996 120.83 251.196 120.83 236.881 188.432 238.466 188.768 252.848 120.83 276.758 120.83 276.758 168.343 278.373 168.343 278.373 120.83 302.283 120.83 316.664 188.768 318.25 188.432 303.934 120.83 326.135 120.83 326.135 119.208 228.996 119.208 228.996 120.83Z" fill="#782F40" fill-rule="nonzero" fill-opacity="1" transform="matrix(1.00157 0 0 1 202 62.0659)"/><path d="M328.349 33.1908 285.381 33.1908 278.358 0 276.772 0 269.75 33.1908 226.782 33.1908 222.821 115.408 332.31 115.408 328.349 33.1908ZM283.729 33.1908 278.373 33.1908 278.373 7.89943 283.729 33.1908ZM276.758 7.89943 276.758 33.1908 271.401 33.1908 276.758 7.89943ZM234.615 40.6517 319.836 40.6517 320.427 52.4022 234.016 52.4022 234.615 40.6517ZM286.075 73.784 286.075 75.4063 268.354 75.4063 268.354 73.784 286.075 73.784ZM250.575 91.344 232.598 91.344 232.598 89.7217 250.575 89.7217 250.575 91.344ZM251.094 66.6811 233.461 66.6811 233.461 65.0589 251.094 65.0589 251.094 66.6811ZM259.285 107.304 257.671 107.282 258.343 61.5074 259.958 61.5293 259.285 107.304ZM286.25 98.1473 268.164 98.1473 268.164 96.525 286.25 96.525 286.25 98.1473ZM295.122 107.304 294.478 61.5293 296.093 61.5074 296.737 107.282 295.122 107.304ZM302.509 65.0662 320.143 65.0662 320.143 66.6884 302.509 66.6884 302.509 65.0662ZM320.976 91.3513 302.999 91.3513 302.999 89.729 320.976 89.729 320.976 91.3513Z" fill="#782F40" fill-rule="nonzero" fill-opacity="1" transform="matrix(1.00157 0 0 1 202 62.0659)"/><path d="M36.8664 217.399C36.4499 217.874 35.3757 217.932 34.9519 217.516 33.9361 213.752 31.247 208.79 23.3621 208.79 15.4773 208.79 8.12596 214.169 8.12596 226.416 8.12596 238.664 16.0692 245.357 23.7787 245.357 31.4881 245.357 34.5938 240.337 36.2672 236.457 36.808 235.916 37.758 236.157 38.0576 236.698 37.641 240.702 36.0261 244.641 35.193 245.781 34.4769 245.898 33.7607 246.139 33.1031 246.322 31.7877 246.738 27.6663 247.754 23.786 247.754 17.8742 247.754 12.7955 246.556 8.49134 243.75 3.65376 240.586 0.00730752 235.149 0.00730752 227.322 0.00730752 220.336 3.113 214.892 7.53405 211.494 11.9551 208.147 17.9911 206.416 24.0198 206.416 27.4251 206.416 31.5466 207.015 34.3527 207.731L36.0261 208.089C36.143 209.463 36.2672 212.985 36.8664 217.406Z" fill="#782F40" fill-rule="nonzero" fill-opacity="1" transform="matrix(1.00157 0 0 1 202 62.0659)"/><path d="M49.0481 215.966C49.0481 209.631 48.5073 209.397 45.7012 209.039L44.7439 208.922C44.3274 208.505 44.3859 207.424 44.8609 207.19 47.1335 207.307 49.9396 207.373 52.5703 207.373L63.9847 207.373C67.8065 207.373 71.2703 207.314 72.0522 207.19 72.2933 208.206 72.6514 212.927 73.0094 215.499 72.7683 215.974 71.5772 216.098 71.0949 215.74 70.1376 212.276 69.2461 210.844 67.3315 210.303 65.9577 209.945 64.1673 209.77 62.5524 209.77L58.5479 209.77C55.9829 209.77 55.9829 209.887 55.9829 213.292L55.9829 223.391C55.9829 224.94 56.0414 225.006 57.4152 225.006L60.2797 225.006C65.4754 225.006 66.3742 224.947 66.915 222.375L67.3315 220.344C67.8065 219.927 68.9465 219.927 69.2461 220.402 69.1876 222.017 69.0634 224.166 69.0634 226.372 69.0634 228.579 69.1803 230.735 69.2461 232.65 68.9465 233.066 67.8138 233.066 67.3315 232.708L66.915 230.318C66.4984 227.812 65.4827 227.688 60.2797 227.688L57.4152 227.688C56.0414 227.688 55.9829 227.805 55.9829 229.303L55.9829 236.888C55.9829 239.935 56.0998 242.084 56.9987 243.099 57.7148 243.932 58.7305 244.356 63.7508 244.415 71.336 244.473 72.6514 242.8 74.7413 237.962 75.2821 237.546 76.2978 237.721 76.6559 238.32 76.2978 240.827 74.9825 245.372 74.1494 246.987 71.5187 246.87 66.3815 246.804 59.3955 246.804L52.5849 246.804C49.9542 246.804 46.3151 246.863 43.6259 246.987 43.1509 246.746 43.0925 245.672 43.509 245.255L45.7159 245.014C48.5219 244.714 49.0627 244.532 49.0627 238.203L49.0627 215.981Z" fill="#782F40" fill-rule="nonzero" fill-opacity="1" transform="matrix(1.00157 0 0 1 202 62.0659)"/><path d="M96.8466 227.673C93.7993 227.673 93.624 227.79 93.624 229.405L93.624 238.189C93.624 244.524 94.1574 244.641 96.9708 244.999L98.7611 245.24C99.1777 245.657 99.1192 246.731 98.6442 246.972 95.5385 246.855 92.8494 246.79 90.2187 246.79 87.588 246.79 84.8988 246.848 82.6335 246.972 82.1585 246.731 82.0927 245.657 82.5165 245.24L83.3496 245.123C86.1557 244.707 86.6964 244.524 86.6964 238.196L86.6964 215.974C86.6964 209.638 86.1557 209.463 83.3496 209.105L82.0342 208.929C81.6177 208.63 81.6762 207.431 82.1512 207.197 84.7819 207.314 87.588 207.38 90.2187 207.38 92.8494 207.38 95.5385 207.322 97.8696 207.197 98.3446 207.439 98.4104 208.63 97.9865 208.929L96.9708 209.105C94.1647 209.587 93.624 209.645 93.624 215.974L93.624 223.201C93.624 224.874 93.7993 224.991 96.8466 224.991L110.826 224.991C113.873 224.991 114.048 224.874 114.048 223.201L114.048 215.974C114.048 209.638 113.508 209.463 110.702 209.105L109.386 208.929C108.97 208.63 109.028 207.431 109.503 207.197 112.251 207.314 114.94 207.38 117.571 207.38 120.201 207.38 122.891 207.322 125.28 207.197 125.755 207.439 125.821 208.63 125.397 208.929L124.323 209.105C121.517 209.587 120.976 209.645 120.976 215.974L120.976 238.196C120.976 244.532 121.517 244.707 124.323 245.065L125.638 245.248C126.055 245.664 125.996 246.738 125.521 246.98 122.891 246.863 120.201 246.797 117.578 246.797 114.955 246.797 112.141 246.855 109.511 246.98 109.036 246.738 108.977 245.664 109.394 245.248L110.709 245.065C113.515 244.707 114.056 244.524 114.056 238.196L114.056 229.412C114.056 227.797 113.873 227.68 110.833 227.68L96.8539 227.68Z" fill="#782F40" fill-rule="nonzero" fill-opacity="1" transform="matrix(1.00157 0 0 1 202 62.0659)"/><path d="M148.343 227.673C145.295 227.673 145.12 227.79 145.12 229.405L145.12 238.189C145.12 244.524 145.654 244.641 148.467 244.999L150.257 245.24C150.674 245.657 150.615 246.731 150.14 246.972 147.035 246.855 144.345 246.79 141.715 246.79 139.084 246.79 136.395 246.848 134.13 246.972 133.655 246.731 133.589 245.657 134.013 245.24L134.846 245.123C137.652 244.707 138.193 244.524 138.193 238.196L138.193 215.974C138.193 209.638 137.652 209.463 134.846 209.105L133.53 208.929C133.114 208.63 133.172 207.431 133.647 207.197 136.278 207.314 139.084 207.38 141.715 207.38 144.345 207.38 147.035 207.322 149.366 207.197 149.841 207.439 149.906 208.63 149.483 208.929L148.467 209.105C145.661 209.587 145.12 209.645 145.12 215.974L145.12 223.201C145.12 224.874 145.295 224.991 148.343 224.991L162.322 224.991C165.369 224.991 165.545 224.874 165.545 223.201L165.545 215.974C165.545 209.638 165.004 209.463 162.198 209.105L160.882 208.929C160.466 208.63 160.524 207.431 160.999 207.197 163.747 207.314 166.436 207.38 169.067 207.38 171.698 207.38 174.387 207.322 176.776 207.197 177.251 207.439 177.317 208.63 176.893 208.929L175.819 209.105C173.013 209.587 172.472 209.645 172.472 215.974L172.472 238.196C172.472 244.532 173.013 244.707 175.819 245.065L177.134 245.248C177.551 245.664 177.492 246.738 177.017 246.98 174.387 246.863 171.698 246.797 169.074 246.797 166.451 246.797 163.637 246.855 161.007 246.98 160.532 246.738 160.473 245.664 160.89 245.248L162.205 245.065C165.011 244.707 165.552 244.524 165.552 238.196L165.552 229.412C165.552 227.797 165.369 227.68 162.329 227.68L148.35 227.68Z" fill="#782F40" fill-rule="nonzero" fill-opacity="1" transform="matrix(1.00157 0 0 1 202 62.0659)"/><path d="M186.583 245.24C185.509 243.984 184.727 239.862 184.793 236.157 185.151 235.558 186.166 235.499 186.641 235.916 187.716 238.963 190.946 245.357 196.799 245.357 201.337 245.357 203.909 242.61 203.909 238.963 203.909 235.558 202.294 232.81 197.815 230.297L195.242 228.864C190.763 226.35 186.817 222.711 186.817 217.333 186.817 211.421 191.238 206.401 199.963 206.401 203.069 206.401 205.341 207.117 208.147 207.658 208.805 208.973 209.404 212.912 209.404 215.725 209.105 216.259 208.031 216.325 207.49 215.901 206.591 212.795 204.501 208.79 199.422 208.79 194.643 208.79 192.67 211.896 192.67 215.06 192.67 217.574 194.402 220.256 198.348 222.353L202.053 224.326C205.933 226.358 210.237 230.063 210.237 236.099 210.237 242.909 205.042 247.747 196.375 247.747 190.88 247.747 187.774 245.957 186.576 245.24Z" fill="#782F40" fill-rule="nonzero" fill-opacity="1" transform="matrix(1.00157 0 0 1 202 62.0659)"/><path d="M240.41 216.325C240.41 210.588 240.352 209.872 237.546 209.572L235.989 209.39C235.573 208.973 235.573 208.016 236.048 207.716 239.811 207.358 244.89 207.176 249.786 207.176 254.682 207.176 258.511 207.775 261.134 209.207 264.181 210.822 266.388 213.628 266.388 217.932 266.388 223.427 262.15 226.175 259.22 227.374 258.862 227.556 258.979 228.031 259.22 228.389 263.999 236.457 266.988 241.535 269.794 243.867 271.467 245.299 273.199 245.657 273.915 245.715 274.215 245.957 274.215 246.614 274.032 246.914 273.316 247.097 272.183 247.272 270.086 247.272 264.35 247.272 261.244 244.941 257.597 239.387 255.982 236.873 254.309 233.592 252.877 231.261 251.803 229.471 251.145 229.23 249.172 229.23 247.382 229.23 247.323 229.288 247.323 230.545L247.323 238.196C247.323 244.532 247.856 244.707 250.67 245.065L251.985 245.248C252.402 245.664 252.343 246.738 251.868 246.98 249.238 246.863 246.548 246.797 243.925 246.797 241.302 246.797 238.605 246.855 235.858 246.98 235.383 246.738 235.2 245.664 235.741 245.248L237.056 245.065C239.862 244.707 240.403 244.524 240.403 238.196L240.403 216.332ZM247.338 224.925C247.338 226.84 247.338 226.957 250.202 226.957 256.056 226.957 258.745 224.092 258.745 218.415 258.745 213.694 255.697 209.572 250.502 209.572 247.396 209.572 247.338 209.755 247.338 212.503L247.338 224.933Z" fill="#782F40" fill-rule="nonzero" fill-opacity="1" transform="matrix(1.00157 0 0 1 202 62.0659)"/><path d="M282.589 215.966C282.589 209.631 282.048 209.397 279.242 209.039L278.285 208.922C277.868 208.505 277.927 207.424 278.402 207.19 280.675 207.307 283.481 207.373 286.111 207.373L297.526 207.373C301.348 207.373 304.811 207.314 305.593 207.19 305.834 208.206 306.192 212.927 306.551 215.499 306.309 215.974 305.118 216.098 304.636 215.74 303.679 212.276 302.787 210.844 300.873 210.303 299.499 209.945 297.708 209.77 296.093 209.77L292.089 209.77C289.524 209.77 289.524 209.887 289.524 213.292L289.524 223.391C289.524 224.94 289.582 225.006 290.956 225.006L293.821 225.006C299.016 225.006 299.915 224.947 300.456 222.375L300.873 220.344C301.348 219.927 302.488 219.927 302.787 220.402 302.729 222.017 302.604 224.166 302.604 226.372 302.604 228.579 302.721 230.735 302.787 232.65 302.488 233.066 301.355 233.066 300.873 232.708L300.456 230.318C300.04 227.812 299.024 227.688 293.821 227.688L290.956 227.688C289.582 227.688 289.524 227.805 289.524 229.303L289.524 236.888C289.524 239.935 289.641 242.084 290.54 243.099 291.256 243.932 292.272 244.356 297.292 244.415 304.877 244.473 306.192 242.8 308.282 237.962 308.823 237.546 309.839 237.721 310.197 238.32 309.839 240.827 308.524 245.372 307.69 246.987 305.06 246.87 299.923 246.804 292.937 246.804L286.126 246.804C283.495 246.804 279.856 246.863 277.167 246.987 276.692 246.746 276.634 245.672 277.05 245.255L279.257 245.014C282.063 244.714 282.604 244.532 282.604 238.203L282.604 215.981Z" fill="#782F40" fill-rule="nonzero" fill-opacity="1" transform="matrix(1.00157 0 0 1 202 62.0659)"/><path d="M317.124 245.24C316.05 243.984 315.276 239.862 315.334 236.157 315.692 235.558 316.708 235.499 317.183 235.916 318.257 238.963 321.487 245.357 327.34 245.357 331.886 245.357 334.451 242.61 334.451 238.963 334.451 235.558 332.836 232.81 328.356 230.297L325.791 228.864C321.312 226.35 317.366 222.711 317.366 217.333 317.366 211.421 321.787 206.401 330.512 206.401 333.618 206.401 335.89 207.117 338.696 207.658 339.354 208.973 339.953 212.912 339.953 215.725 339.654 216.259 338.579 216.325 338.039 215.901 337.14 212.795 335.05 208.79 329.971 208.79 325.192 208.79 323.219 211.896 323.219 215.06 323.219 217.574 324.951 220.256 328.897 222.353L332.602 224.326C336.482 226.358 340.786 230.063 340.786 236.099 340.786 242.909 335.591 247.747 326.924 247.747 321.429 247.747 318.323 245.957 317.124 245.24Z" fill="#782F40" fill-rule="nonzero" fill-opacity="1" transform="matrix(1.00157 0 0 1 202 62.0659)"/><path d="M353.333 215.966C353.333 209.631 352.793 209.397 349.986 209.039L349.029 208.922C348.613 208.505 348.671 207.424 349.146 207.19 351.419 207.307 354.225 207.373 356.855 207.373L368.27 207.373C372.092 207.373 375.563 207.314 376.337 207.19 376.578 208.206 376.937 212.927 377.295 215.499 377.053 215.974 375.862 216.098 375.38 215.74 374.423 212.276 373.531 210.844 371.617 210.303 370.243 209.945 368.453 209.77 366.838 209.77L362.833 209.77C360.268 209.77 360.268 209.887 360.268 213.292L360.268 223.391C360.268 224.94 360.327 225.006 361.7 225.006L364.565 225.006C369.761 225.006 370.659 224.947 371.2 222.375L371.617 220.344C372.092 219.927 373.232 219.927 373.531 220.402 373.473 222.017 373.349 224.166 373.349 226.372 373.349 228.579 373.465 230.735 373.531 232.65 373.232 233.066 372.099 233.066 371.617 232.708L371.2 230.318C370.784 227.812 369.768 227.688 364.565 227.688L361.7 227.688C360.327 227.688 360.268 227.805 360.268 229.303L360.268 236.888C360.268 239.935 360.385 242.084 361.284 243.099 362 243.932 363.016 244.356 368.036 244.415 375.629 244.473 376.937 242.8 379.026 237.962 379.56 237.546 380.576 237.721 380.941 238.32 380.583 240.827 379.268 245.372 378.435 246.987 375.804 246.87 370.667 246.804 363.673 246.804L356.863 246.804C354.232 246.804 350.593 246.863 347.904 246.987 347.421 246.746 347.363 245.672 347.787 245.255L349.994 245.014C352.8 244.714 353.341 244.532 353.341 238.203L353.341 215.981Z" fill="#782F40" fill-rule="nonzero" fill-opacity="1" transform="matrix(1.00157 0 0 1 202 62.0659)"/><path d="M395.987 232.16C394.438 232.16 394.497 232.16 393.956 233.775L391.566 240.944C390.368 244.466 391.15 244.59 393.357 244.948L395.088 245.248C395.505 245.664 395.447 246.738 394.972 246.98 393.057 246.863 390.792 246.863 388.336 246.797 386.363 246.797 384.514 246.855 382.424 246.98 382.008 246.68 381.949 245.781 382.366 245.248L384.156 244.948C385.888 244.648 386.546 244.174 387.445 242.2 388.161 240.644 389.118 238.137 390.375 234.908L398.559 213.643C399.276 211.728 399.875 210.296 399.692 209.28 401.782 208.864 403.755 206.416 403.872 206.416 404.347 206.416 404.647 206.598 404.888 206.898 405.845 209.587 406.62 212.393 407.577 215.082L416.178 240.118C417.552 244.122 417.851 244.48 420.899 245.08L421.797 245.262C422.28 245.679 422.28 246.695 421.856 246.994 419.408 246.877 417.194 246.812 414.088 246.812 411.523 246.812 408.892 246.928 406.802 246.994 406.32 246.695 406.262 245.62 406.62 245.262L407.935 245.08C410.083 244.78 410.383 244.422 409.484 241.915L406.678 233.79C406.137 232.175 405.904 232.175 404.23 232.175L395.987 232.175ZM403.456 229.471C405.129 229.471 405.37 229.354 404.888 227.922L402.374 220.753C401.3 217.589 400.942 216.215 400.642 215.791L400.525 215.791C400.284 216.208 399.692 217.939 398.676 220.753L395.987 227.746C395.388 229.478 395.512 229.478 396.945 229.478L403.456 229.478Z" fill="#782F40" fill-rule="nonzero" fill-opacity="1" transform="matrix(1.00157 0 0 1 202 62.0659)"/><path d="M431.414 216.325C431.414 210.588 431.356 209.872 428.55 209.572L426.993 209.39C426.577 208.973 426.577 208.016 427.052 207.716 430.815 207.358 435.894 207.176 440.797 207.176 445.7 207.176 449.522 207.775 452.146 209.207 455.193 210.822 457.407 213.628 457.407 217.932 457.407 223.427 453.161 226.175 450.238 227.374 449.88 227.556 449.997 228.031 450.238 228.389 455.017 236.457 458.006 241.535 460.812 243.867 462.486 245.299 464.218 245.657 464.934 245.715 465.233 245.957 465.233 246.614 465.051 246.914 464.335 247.097 463.202 247.272 461.105 247.272 455.368 247.272 452.263 244.941 448.616 239.387 447.001 236.873 445.328 233.592 443.895 231.261 442.821 229.471 442.164 229.23 440.19 229.23 438.4 229.23 438.342 229.288 438.342 230.545L438.342 238.196C438.342 244.532 438.875 244.707 441.689 245.065L443.004 245.248C443.42 245.664 443.362 246.738 442.887 246.98 440.256 246.863 437.567 246.797 434.944 246.797 432.32 246.797 429.624 246.855 426.876 246.98 426.394 246.738 426.218 245.664 426.759 245.248L428.075 245.065C430.881 244.707 431.421 244.524 431.421 238.196L431.421 216.332ZM438.342 224.925C438.342 226.84 438.342 226.957 441.206 226.957 447.06 226.957 449.749 224.092 449.749 218.415 449.749 213.694 446.701 209.572 441.506 209.572 438.4 209.572 438.342 209.755 438.342 212.503L438.342 224.933Z" fill="#782F40" fill-rule="nonzero" fill-opacity="1" transform="matrix(1.00157 0 0 1 202 62.0659)"/><path d="M503.707 217.399C503.291 217.874 502.209 217.932 501.793 217.516 500.777 213.752 498.088 208.79 490.203 208.79 482.318 208.79 474.967 214.169 474.967 226.416 474.967 238.664 482.91 245.357 490.62 245.357 498.329 245.357 501.435 240.337 503.108 236.457 503.649 235.916 504.606 236.157 504.899 236.698 504.482 240.702 502.867 244.641 502.034 245.781 501.318 245.898 500.602 246.139 499.944 246.322 498.629 246.738 494.507 247.754 490.627 247.754 484.715 247.754 479.636 246.556 475.332 243.75 470.495 240.586 466.848 235.149 466.848 227.322 466.848 220.336 469.954 214.892 474.375 211.494 478.796 208.147 484.832 206.416 490.868 206.416 494.273 206.416 498.395 207.015 501.201 207.731L502.874 208.089C502.991 209.463 503.116 212.985 503.707 217.406Z" fill="#782F40" fill-rule="nonzero" fill-opacity="1" transform="matrix(1.00157 0 0 1 202 62.0659)"/><path d="M526.054 227.673C523.007 227.673 522.824 227.79 522.824 229.405L522.824 238.189C522.824 244.524 523.365 244.641 526.171 244.999L527.961 245.24C528.378 245.657 528.319 246.731 527.844 246.972 524.738 246.855 522.049 246.79 519.419 246.79 516.788 246.79 514.099 246.848 511.833 246.972 511.351 246.731 511.293 245.657 511.716 245.24L512.55 245.123C515.356 244.707 515.896 244.524 515.896 238.196L515.896 215.974C515.896 209.638 515.356 209.463 512.55 209.105L511.234 208.929C510.818 208.63 510.876 207.431 511.351 207.197 513.982 207.314 516.788 207.38 519.419 207.38 522.049 207.38 524.738 207.322 527.07 207.197 527.545 207.439 527.603 208.63 527.186 208.929L526.171 209.105C523.365 209.587 522.824 209.645 522.824 215.974L522.824 223.201C522.824 224.874 523.007 224.991 526.054 224.991L540.033 224.991C543.08 224.991 543.263 224.874 543.263 223.201L543.263 215.974C543.263 209.638 542.722 209.463 539.916 209.105L538.601 208.929C538.184 208.63 538.243 207.431 538.718 207.197 541.465 207.314 544.155 207.38 546.785 207.38 549.416 207.38 552.105 207.322 554.495 207.197 554.977 207.439 555.035 208.63 554.612 208.929L553.537 209.105C550.731 209.587 550.191 209.645 550.191 215.974L550.191 238.196C550.191 244.532 550.724 244.707 553.537 245.065L554.853 245.248C555.269 245.664 555.211 246.738 554.736 246.98 552.105 246.863 549.416 246.797 546.793 246.797 544.169 246.797 541.356 246.855 538.725 246.98 538.243 246.738 538.184 245.664 538.608 245.248L539.924 245.065C542.73 244.707 543.27 244.524 543.27 238.196L543.27 229.412C543.27 227.797 543.088 227.68 540.04 227.68L526.061 227.68Z" fill="#782F40" fill-rule="nonzero" fill-opacity="1" transform="matrix(1.00157 0 0 1 202 62.0659)"/><path d="M38.7006 318.564C40.586 328.78 47.9373 334.253 58.694 334.253 69.9914 334.253 77.1601 328.605 77.1601 319.28 77.1601 309.956 73.3091 306.192 58.694 302.246 45.9643 298.841 39.9575 295.165 39.9575 285.841 39.9575 276.517 47.0385 270.963 58.4236 270.963 72.2275 270.963 76.8897 279.213 77.8763 286.206L76.0859 286.206C74.4709 277.868 68.8222 272.578 58.3359 272.578 48.5658 272.578 41.8429 276.97 41.8429 285.666 41.8429 293.821 46.6804 297.321 58.8767 300.456 75.6402 304.76 79.0455 310.314 79.0455 319.105 79.0455 329.416 71.336 335.868 58.6063 335.868 45.8766 335.868 38.6129 328.963 36.8226 318.564L38.7079 318.564Z" fill="#782F40" fill-rule="nonzero" fill-opacity="1" transform="matrix(1.00157 0 0 1 202 62.0659)"/><path d="M93.2951 271.862 95.0855 271.862 95.0855 300.456 136.68 300.456 136.68 271.862 138.47 271.862 138.47 334.969 136.68 334.969 136.68 302.071 95.0855 302.071 95.0855 334.969 93.2951 334.969 93.2951 271.862Z" fill="#782F40" fill-rule="nonzero" fill-opacity="1" transform="matrix(1.00157 0 0 1 202 62.0659)"/><path d="M208.666 302.875C208.666 320.8 199.43 335.861 180.518 335.861 163.126 335.861 152.91 321.516 152.91 303.408 152.91 285.3 162.768 270.956 181.058 270.956 198.18 270.956 208.666 285.205 208.666 302.868ZM154.788 303.233C154.788 319.368 163.301 334.253 180.518 334.253 197.734 334.253 206.781 320.362 206.781 302.97 206.781 286.477 197.281 272.578 180.963 272.578 164.646 272.578 154.788 286.206 154.788 303.24Z" fill="#782F40" fill-rule="nonzero" fill-opacity="1" transform="matrix(1.00157 0 0 1 202 62.0659)"/><path d="M234.849 334.969 217.099 271.862 218.984 271.862C223.822 289.071 235.302 329.321 236.106 333.354L236.194 333.354C237.721 327.53 249.998 287.544 254.389 271.862L257.079 271.862C261.653 287.726 274.017 329.862 274.829 333.267L274.916 333.267C277.072 326.186 288.808 287.726 293.74 271.862L295.626 271.862 276.085 334.969 273.484 334.969C269.004 318.834 256.633 277.057 255.734 273.206L255.646 273.206C254.484 278.314 242.646 317.49 237.356 334.969L234.842 334.969Z" fill="#782F40" fill-rule="nonzero" fill-opacity="1" transform="matrix(1.00157 0 0 1 202 62.0659)"/><path d="M354.795 318.294C352.018 326.902 345.741 335.861 330.863 335.861 312.572 335.861 303.701 321.429 303.701 303.766 303.701 286.104 312.579 270.956 331.403 270.956 343.592 270.956 352.018 277.949 354.707 289.422L352.822 289.422C350.22 279.381 342.694 272.658 331.396 272.658 313.288 272.658 305.579 287.178 305.579 303.766 305.579 319.456 313.376 334.158 330.95 334.158 343.139 334.158 349.87 327.253 352.917 318.294L354.802 318.294Z" fill="#782F40" fill-rule="nonzero" fill-opacity="1" transform="matrix(1.00157 0 0 1 202 62.0659)"/><path d="M374.072 310.409 364.66 334.969 362.775 334.969 386.977 271.862 388.862 271.862 414.051 334.969 412.078 334.969 402.308 310.409 374.072 310.409ZM401.592 308.794C393.612 288.801 389.133 276.882 387.876 273.74L387.788 273.74C387.16 276.071 380.978 292.389 374.7 308.794L401.592 308.794Z" fill="#782F40" fill-rule="nonzero" fill-opacity="1" transform="matrix(1.00157 0 0 1 202 62.0659)"/><path d="M424.545 318.564C426.43 328.78 433.782 334.253 444.531 334.253 455.829 334.253 462.997 328.605 462.997 319.28 462.997 309.956 459.146 306.192 444.531 302.246 431.801 298.841 425.795 295.165 425.795 285.841 425.795 276.517 432.876 270.963 444.261 270.963 458.065 270.963 462.727 279.213 463.713 286.206L461.923 286.206C460.308 277.868 454.659 272.578 444.173 272.578 434.403 272.578 427.68 276.97 427.68 285.666 427.68 293.821 432.518 297.321 444.714 300.456 461.477 304.76 464.883 310.314 464.883 319.105 464.883 329.416 457.173 335.868 444.443 335.868 431.714 335.868 424.457 328.963 422.66 318.564L424.545 318.564Z" fill="#782F40" fill-rule="nonzero" fill-opacity="1" transform="matrix(1.00157 0 0 1 202 62.0659)"/><path d="M515.261 302.341 480.93 302.341 480.93 333.362 518.315 333.362 517.957 334.977 479.14 334.977 479.14 271.869 517.058 271.869 517.058 273.484 480.93 273.484 480.93 300.734 515.261 300.734 515.261 302.349Z" fill="#782F40" fill-rule="nonzero" fill-opacity="1" transform="matrix(1.00157 0 0 1 202 62.0659)"/></g></g></g></g></g></svg>