<?xml version="1.0" encoding="UTF-8"?>
<svg id="finals" xmlns="http://www.w3.org/2000/svg" viewBox="0 0 610.97 610.75">
  <defs>
    <style>
      .cls-1 {
        fill: #ceb888;
      }

      .cls-1, .cls-2, .cls-3 {
        stroke-width: 0px;
      }

      .cls-2 {
        fill: #782f40;
      }

      .cls-3 {
        fill: #fff;
      }
    </style>
  </defs>
  <rect class="cls-2" x="-27.69" y="-38.18" width="664.71" height="664.71"/>
  <g>
    <path class="cls-3" d="M251.14,430.72h-34.99v-67.82h34.99v11.23h-20.57v15.72h19.11v11.27h-19.11v18.18h20.57v11.41Z"/>
    <path class="cls-3" d="M282.64,362.9c7.87,0,13.7,1.81,17.52,5.43,3.81,3.62,5.72,8.81,5.72,15.59,0,3.34-.47,6.4-1.41,9.19-.94,2.78-2.39,5.19-4.33,7.21-1.95,2.03-4.44,3.59-7.46,4.71-3.03,1.11-6.62,1.67-10.79,1.67h-4.49v24.03h-14.42v-67.82h19.66ZM281.64,374.12h-4.23v21.29h3.02c2.39,0,4.4-.38,6.05-1.14,1.65-.76,2.89-1.97,3.73-3.64.84-1.67,1.26-3.85,1.26-6.54,0-3.43-.81-5.95-2.45-7.56-1.63-1.61-4.09-2.41-7.38-2.41Z"/>
    <path class="cls-3" d="M316.42,430.72v-67.82h14.42v56.41h21.68v11.41h-36.1Z"/>
    <path class="cls-3" d="M398.75,411.05c0,4.08-.93,7.67-2.8,10.76-1.87,3.09-4.5,5.5-7.89,7.24-3.4,1.73-7.44,2.6-12.15,2.6-2.15,0-4.24-.12-6.25-.37-2.02-.25-3.98-.65-5.9-1.21s-3.83-1.28-5.75-2.18v-13.31c2.89,1.58,5.86,2.81,8.92,3.69,3.06.88,5.93,1.32,8.62,1.32,1.95,0,3.56-.32,4.84-.95,1.28-.63,2.22-1.51,2.82-2.62s.91-2.35.91-3.71c0-1.51-.32-2.84-.96-3.99-.64-1.14-1.75-2.28-3.33-3.41-1.58-1.13-3.75-2.4-6.5-3.83-2.05-1.08-3.98-2.23-5.77-3.43-1.8-1.21-3.37-2.56-4.71-4.06-1.34-1.5-2.39-3.26-3.13-5.29-.74-2.02-1.11-4.43-1.11-7.21-.03-3.87.82-7.24,2.55-10.11,1.73-2.88,4.23-5.11,7.51-6.7,3.28-1.59,7.18-2.37,11.72-2.34,3.16,0,6.23.38,9.23,1.14,2.99.76,5.93,1.83,8.82,3.22l-4.13,11.46c-2.59-1.33-4.99-2.32-7.21-2.97s-4.35-.97-6.4-.97c-1.71,0-3.13.29-4.26.86-1.13.57-1.99,1.36-2.6,2.37s-.91,2.16-.91,3.46c0,1.61.32,2.96.96,4.06s1.77,2.18,3.4,3.25c1.63,1.07,3.87,2.33,6.73,3.78,3.19,1.64,5.87,3.37,8.04,5.2,2.17,1.83,3.82,3.89,4.97,6.19,1.14,2.3,1.71,5,1.71,8.09Z"/>
  </g>
  <g>
    <path class="cls-1" d="M198.6,187.28c-29.79,0-53.31,5.5-53.5,5.5l-4.74,1.14,3.98,2.85c4.36,3.23,6.07,6.45,6.26,11.57,0,0-.19,96.85,0,101.97,0,4.74-1.9,7.59-6.26,11l-5.5,3.98h51.8l-5.5-3.98s-6.07-5.12-5.88-11v-34.62h54.64c1.9.19,4.74,1.33,4.74,1.33l3.6,2.28v-35.29l-3.42,2.09s-1.9,1.14-4.55,1.14h-55.02v-31.12s11.19-1.52,17.26-1.52,22.2,1.71,29.79,4.55c8.73,3.42,15.94,9.87,15.94,9.87v-37l-1.9-.38c-.19,0-18.02-4.36-41.74-4.36ZM233.13,210.43s-4.93-2.47-13.09-3.79c-8.35-1.52-11.76-1.9-23.34-2.09-15.94-.38-28.46,1.9-28.46,1.9v51.61h63.18v6.64h-63.18v50.74h-6.83l.19-114.68s13.47-3.04,34.91-3.04c11.57,0,23.34.76,36.62,3.04v9.68Z"/>
    <path class="cls-1" d="M353.32,304.15v-30.74c0-6.45-4.36-8.35-4.36-8.35l-59.01-36.43v-12.9c3.6-.57,7.02-1.14,22.01-.57,9.68.38,16.51,1.52,22.77,3.6,10.06,3.23,13.85,6.26,13.85,6.26l4.74,3.98-.19-37.38-2.28-.38c-.76-.19-21.82-4.17-44.21-4.17-28.27,0-48.76,5.12-49.71,5.31l-5.69,1.33,4.74,3.61c3.79,2.85,5.5,5.88,5.69,10.43l-.19,26.37c0,8.35,6.26,11.76,6.26,11.76l57.11,35.67v14.61c-3.41.57-8.16,1.14-22.96.57-9.87-.38-15.37-1.71-21.82-3.6-10.43-2.85-18.59-10.25-18.59-10.25v37.19l2.28.57c.95.19,20.87,4.17,43.45,4.17,28.27,0,49.71-5.12,50.66-5.31l5.88-1.33-4.93-3.6c-3.79-2.85-5.31-5.88-5.5-10.43ZM342.31,311.36s-12.9,2.85-33.01,2.85c-11.19,0-24.1-.76-36.62-2.85v-9.11s4.93,2.28,12.52,3.6c7.97,1.33,12.9,1.71,23.72,1.9,15.18.38,26.94-1.71,26.94-1.71v-24.85c0-5.5-5.5-8.54-5.5-8.54l-52.36-32.82s-5.31-3.23-5.31-9.3v-29.98s11.76-2.85,31.87-2.85c11,0,24.85.76,37.57,2.85v9.11s-4.74-2.28-12.33-3.6c-7.97-1.52-14.04-1.71-25.04-1.9-14.99-.38-25.8,1.71-25.8,1.71v22.58c0,5.12,5.12,7.97,5.12,7.97l53.31,33.01s4.93,2.66,4.93,8.54v33.39Z"/>
    <path class="cls-1" d="M463.4,303.2v-111.64h-28.46v104.62c-3.04.38-11.57.57-17.27.57-6.26,0-15.56-.19-17.64-.57v-104.62h-37s8.92,6.26,8.92,15.75v112.78l1.71.57c.57.19,15.56,4.17,44.02,4.17,25.8,0,49.33-5.12,49.52-5.31l4.93-.95s-8.73-2.09-8.73-15.37ZM451.83,311.55s-8.73,2.47-34.34,2.47c-20.11,0-34.72-2.47-34.72-2.47v-109.17h6.07v103.67s13.47,1.9,28.65,1.9c21.82,0,28.27-1.9,28.27-1.9v-103.67h6.07v109.17Z"/>
    <path class="cls-3" d="M161.61,200.75l-.19,114.68h6.83v-50.74h63.18v-6.64h-63.18v-51.61s12.52-2.28,28.46-1.9c11.57.19,14.99.57,23.34,2.09,8.16,1.33,13.09,3.79,13.09,3.79v-9.68c-13.28-2.28-25.04-3.04-36.62-3.04-21.44,0-34.91,3.04-34.91,3.04Z"/>
    <path class="cls-3" d="M445.76,306.05s-6.45,1.9-28.27,1.9c-15.18,0-28.65-1.9-28.65-1.9v-103.67h-6.07v109.17s14.61,2.47,34.72,2.47c25.61,0,34.34-2.47,34.34-2.47v-109.17h-6.07v103.67Z"/>
    <path class="cls-3" d="M337.38,269.43l-53.31-33.01s-5.12-2.85-5.12-7.97v-22.58s10.81-2.09,25.8-1.71c11,.19,17.08.38,25.04,1.9,7.59,1.33,12.33,3.6,12.33,3.6v-9.11c-12.71-2.09-26.56-2.85-37.57-2.85-20.11,0-31.87,2.85-31.87,2.85v29.98c0,6.07,5.31,9.3,5.31,9.3l52.36,32.82s5.5,3.03,5.5,8.54v24.85s-11.76,2.09-26.94,1.71c-10.81-.19-15.75-.57-23.72-1.9-7.59-1.33-12.52-3.6-12.52-3.6v9.11c12.52,2.09,25.42,2.85,36.62,2.85,20.11,0,33.01-2.85,33.01-2.85v-33.39c0-5.88-4.93-8.54-4.93-8.54Z"/>
  </g>
</svg>