<?xml version="1.0" encoding="UTF-8"?>
<svg id="finals" xmlns="http://www.w3.org/2000/svg" viewBox="0 0 1067.82 447.66">
  <defs>
    <style>
      .cls-1 {
        fill: #ceb888;
      }

      .cls-1, .cls-2 {
        stroke-width: 0px;
      }

      .cls-2 {
        fill: #782f40;
      }
    </style>
  </defs>
  <g>
    <path class="cls-2" d="M479.78,295.91h-30.48v-67.82h30.48v11.09h-17.44v15.96h16.24v11.13h-16.24v18.32h17.44v11.32Z"/>
    <path class="cls-2" d="M507.06,228.09c6.9,0,12.02,1.79,15.38,5.36,3.36,3.57,5.03,8.78,5.03,15.61,0,3.43-.43,6.55-1.28,9.35-.85,2.8-2.14,5.2-3.87,7.21-1.73,2.01-3.91,3.56-6.54,4.64-2.63,1.08-5.74,1.62-9.32,1.62h-3.57v24.03h-13.04v-67.82h17.21ZM506.09,239.18h-3.2v21.57h2.27c2.07,0,3.8-.39,5.2-1.16,1.39-.77,2.44-2.01,3.15-3.71.71-1.7,1.07-3.94,1.07-6.73,0-3.46-.7-5.99-2.11-7.58-1.41-1.59-3.53-2.39-6.38-2.39Z"/>
    <path class="cls-2" d="M536.42,295.91v-67.82h13.04v56.5h18.04v11.32h-31.08Z"/>
    <path class="cls-2" d="M607.67,276.06c0,4.08-.82,7.69-2.46,10.81-1.64,3.12-3.95,5.57-6.93,7.33s-6.5,2.64-10.55,2.64c-1.89,0-3.71-.12-5.47-.35-1.76-.23-3.5-.62-5.2-1.16-1.7-.54-3.4-1.26-5.1-2.16v-13.31c2.47,1.61,5.04,2.83,7.7,3.67,2.66.83,5.12,1.25,7.38,1.25,1.67,0,3.05-.32,4.15-.97,1.1-.65,1.92-1.53,2.46-2.64s.81-2.37.81-3.76c0-1.48-.23-2.79-.7-3.92s-1.35-2.26-2.67-3.39c-1.32-1.13-3.24-2.43-5.78-3.92-1.98-1.17-3.77-2.38-5.36-3.62-1.59-1.24-2.95-2.61-4.08-4.11-1.13-1.5-1.99-3.24-2.58-5.22-.59-1.98-.88-4.31-.88-7-.03-3.83.72-7.19,2.25-10.07,1.53-2.88,3.74-5.11,6.63-6.7,2.89-1.59,6.36-2.37,10.41-2.34,2.75,0,5.45.37,8.09,1.11,2.64.74,5.19,1.79,7.63,3.15l-3.57,11.5c-2.2-1.33-4.27-2.31-6.22-2.95-1.95-.63-3.77-.95-5.47-.95-1.48,0-2.73.29-3.73.86-1,.57-1.76,1.35-2.27,2.34-.51.99-.77,2.12-.77,3.39,0,1.61.25,2.97.74,4.08.49,1.11,1.43,2.2,2.81,3.27,1.38,1.07,3.36,2.34,5.96,3.83,2.81,1.64,5.16,3.38,7.05,5.22,1.89,1.84,3.31,3.9,4.27,6.17.96,2.27,1.44,4.91,1.44,7.91Z"/>
  </g>
  <g>
    <path class="cls-2" d="M685.19,173.88V62.24h-28.46v104.62c-3.04.38-11.57.57-17.27.57-6.26,0-15.56-.19-17.64-.57V62.24h-37s8.92,6.26,8.92,15.75v112.78l1.71.57c.57.19,15.56,4.17,44.02,4.17,25.8,0,49.33-5.12,49.52-5.31l4.93-.95s-8.73-2.09-8.73-15.37ZM673.61,182.23s-8.73,2.47-34.34,2.47c-20.11,0-34.72-2.47-34.72-2.47v-109.17h6.07v103.67s13.47,1.9,28.65,1.9c21.82,0,28.27-1.9,28.27-1.9v-103.67h6.07v109.17Z"/>
    <g>
      <path class="cls-2" d="M419.58,57.78c-29.79,0-53.31,5.5-53.5,5.5l-4.74,1.14,3.98,2.85c4.36,3.23,6.07,6.45,6.26,11.57,0,0-.19,96.56,0,101.69,0,4.74-1.9,7.59-6.26,11l-5.5,3.98h51.8l-5.5-3.98s-6.07-5.12-5.88-11v-34.33h54.64c1.9.19,4.74,1.33,4.74,1.33l3.6,2.28v-35.29l-3.42,2.09s-1.9,1.14-4.55,1.14h-55.02v-31.12s11.19-1.52,17.26-1.52,22.2,1.71,29.79,4.55c8.73,3.42,15.94,9.87,15.94,9.87v-37l-1.9-.38c-.19,0-18.02-4.36-41.74-4.36ZM454.12,80.92s-4.93-2.47-13.09-3.79c-8.35-1.52-11.76-1.9-23.34-2.09-15.94-.38-28.46,1.9-28.46,1.9v51.61h63.18v6.64h-63.18v50.46h-6.83l.19-114.4s13.47-3.04,34.91-3.04c11.57,0,23.34.76,36.62,3.04v9.68Z"/>
      <path class="cls-1" d="M382.59,71.25l-.19,114.4h6.83v-50.46h63.18v-6.64h-63.18v-51.61s12.52-2.28,28.46-1.9c11.57.19,14.99.57,23.34,2.09,8.16,1.33,13.09,3.79,13.09,3.79v-9.68c-13.28-2.28-25.04-3.04-36.62-3.04-21.44,0-34.91,3.04-34.91,3.04Z"/>
    </g>
    <path class="cls-1" d="M667.54,176.73s-6.45,1.9-28.27,1.9c-15.18,0-28.65-1.9-28.65-1.9v-103.67h-6.07v109.17s14.61,2.47,34.72,2.47c25.61,0,34.34-2.47,34.34-2.47v-109.17h-6.07v103.67Z"/>
    <g>
      <path class="cls-2" d="M574.3,174.83v-30.74c0-6.45-4.36-8.35-4.36-8.35l-59.01-36.43v-12.9c3.6-.57,7.02-1.14,22.01-.57,9.68.38,16.51,1.52,22.77,3.6,10.06,3.23,13.85,6.26,13.85,6.26l4.74,3.98-.19-37.38-2.28-.38c-.76-.19-21.82-4.17-44.21-4.17-28.27,0-48.76,5.12-49.71,5.31l-5.69,1.33,4.74,3.61c3.79,2.85,5.5,5.88,5.69,10.43l-.19,26.37c0,8.35,6.26,11.76,6.26,11.76l57.11,35.67v14.61c-3.41.57-8.16,1.14-22.96.57-9.87-.38-15.37-1.71-21.82-3.6-10.43-2.85-18.59-10.25-18.59-10.25v37.19l2.28.57c.95.19,20.87,4.17,43.45,4.17,28.27,0,49.71-5.12,50.66-5.31l5.88-1.33-4.93-3.6c-3.79-2.85-5.31-5.88-5.5-10.43ZM563.29,182.04s-12.9,2.85-33.01,2.85c-11.19,0-24.1-.76-36.62-2.85v-9.11s4.93,2.28,12.52,3.6c7.97,1.33,12.9,1.71,23.72,1.9,15.18.38,26.94-1.71,26.94-1.71v-24.85c0-5.5-5.5-8.54-5.5-8.54l-52.36-32.82s-5.31-3.23-5.31-9.3v-29.98s11.76-2.85,31.87-2.85c11,0,24.85.76,37.57,2.85v9.11s-4.74-2.28-12.33-3.6c-7.97-1.52-14.04-1.71-25.04-1.9-14.99-.38-25.8,1.71-25.8,1.71v22.58c0,5.12,5.12,7.97,5.12,7.97l53.31,33.01s4.93,2.66,4.93,8.54v33.39Z"/>
      <path class="cls-1" d="M558.36,140.11l-53.31-33.01s-5.12-2.85-5.12-7.97v-22.58s10.81-2.09,25.8-1.71c11,.19,17.08.38,25.04,1.9,7.59,1.33,12.33,3.6,12.33,3.6v-9.11c-12.71-2.09-26.56-2.85-37.57-2.85-20.11,0-31.87,2.85-31.87,2.85v29.98c0,6.07,5.31,9.3,5.31,9.3l52.36,32.82s5.5,3.03,5.5,8.54v24.85s-11.76,2.09-26.94,1.71c-10.81-.19-15.75-.57-23.72-1.9-7.59-1.33-12.52-3.6-12.52-3.6v9.11c12.52,2.09,25.42,2.85,36.62,2.85,20.11,0,33.01-2.85,33.01-2.85v-33.39c0-5.88-4.93-8.54-4.93-8.54Z"/>
    </g>
  </g>
</svg>