<?xml version="1.0" encoding="UTF-8"?>
<svg id="finals" xmlns="http://www.w3.org/2000/svg" viewBox="0 0 1751.75 269.13">
  <defs>
    <style>
      .cls-1 {
        fill: #ceb888;
      }

      .cls-1, .cls-2 {
        stroke-width: 0px;
      }

      .cls-2 {
        fill: #782f40;
      }
    </style>
  </defs>
  <g>
    <path class="cls-2" d="M563.71,98.59c0,6.54-.97,12.05-2.92,16.54-1.95,4.48-4.78,7.89-8.49,10.21-3.71,2.32-8.25,3.48-13.61,3.48h-14.33v-58.54h15.33c5.07,0,9.4,1.08,12.99,3.24,3.59,2.16,6.33,5.35,8.21,9.55,1.88,4.2,2.82,9.38,2.82,15.52ZM551.9,99.03c0-4.35-.46-7.92-1.38-10.71-.92-2.79-2.29-4.85-4.1-6.19-1.82-1.33-4.06-2-6.73-2h-3.88v38.76h3.04c4.46,0,7.75-1.63,9.87-4.9,2.12-3.27,3.18-8.25,3.18-14.95Z"/>
    <path class="cls-2" d="M600.95,128.82h-27.79v-58.54h27.79v9.69h-16.34v13.57h15.17v9.73h-15.17v15.7h16.34v9.85Z"/>
    <path class="cls-2" d="M625.97,70.28c6.25,0,10.88,1.56,13.91,4.68,3.03,3.12,4.54,7.61,4.54,13.45,0,2.88-.37,5.53-1.12,7.93-.75,2.4-1.9,4.48-3.44,6.23-1.55,1.75-3.52,3.1-5.93,4.06s-5.26,1.44-8.57,1.44h-3.56v20.74h-11.45v-58.54h15.62ZM625.17,79.97h-3.36v18.38h2.4c1.89,0,3.5-.33,4.8-.98s2.29-1.7,2.96-3.14c.67-1.44,1-3.32,1-5.65,0-2.96-.65-5.14-1.94-6.53-1.29-1.39-3.25-2.08-5.87-2.08Z"/>
    <path class="cls-2" d="M680.67,128.82l-3.28-14.05h-14.69l-3.28,14.05h-12.29l15.5-58.58h14.65l15.66,58.58h-12.25ZM675.42,104.84l-3.36-15.09c-.24-1.2-.49-2.44-.74-3.7-.25-1.27-.49-2.5-.7-3.7-.21-1.2-.41-2.31-.6-3.32-.11.96-.27,2.05-.5,3.26-.23,1.21-.46,2.46-.7,3.72-.24,1.27-.49,2.48-.76,3.62l-3.32,15.21h10.69Z"/>
    <path class="cls-2" d="M712.9,70.28c4.51,0,8.25.63,11.23,1.88,2.98,1.25,5.19,3.14,6.65,5.67,1.45,2.52,2.18,5.71,2.18,9.55,0,2.43-.33,4.64-1,6.63-.67,1.99-1.66,3.73-2.98,5.23-1.32,1.5-2.96,2.79-4.9,3.88l13.09,25.71h-12.61l-10.49-22.86h-4v22.86h-11.45v-58.54h14.29ZM712.66,79.93h-2.6v16.9h2.84c2.83,0,4.94-.74,6.33-2.22,1.39-1.48,2.08-3.72,2.08-6.71,0-2.75-.71-4.76-2.12-6.05-1.42-1.28-3.59-1.92-6.53-1.92Z"/>
    <path class="cls-2" d="M761.86,128.82h-11.33v-48.69h-11.89v-9.85h35.07v9.85h-11.85v48.69Z"/>
    <path class="cls-2" d="M803.1,128.82l-12.09-43.72h-.32c.11,1.63.21,3.3.3,5,.09,1.71.16,3.34.2,4.9.04,1.56.06,2.97.06,4.22v29.59h-10.57v-58.54h15.74l11.45,41h.24l11.61-41h15.74v58.54h-10.93v-29.75c0-1.33.03-2.77.08-4.3.05-1.53.11-3.12.18-4.76.07-1.64.15-3.26.26-4.86h-.32l-12.37,43.68h-9.25Z"/>
    <path class="cls-2" d="M874.57,128.82h-27.79v-58.54h27.79v9.69h-16.34v13.57h15.17v9.73h-15.17v15.7h16.34v9.85Z"/>
    <path class="cls-2" d="M926.75,128.82h-13.69l-18.82-41.56h-.32c.16,1.92.29,3.74.38,5.45.09,1.71.16,3.3.2,4.78.04,1.48.06,2.85.06,4.1v27.23h-10.57v-58.54h13.61l18.74,40.68h.32c-.11-1.81-.2-3.54-.28-5.17-.08-1.63-.15-3.16-.2-4.6-.05-1.44-.08-2.8-.08-4.08v-26.83h10.65v58.54Z"/>
    <path class="cls-2" d="M956.94,128.82h-11.33v-48.69h-11.89v-9.85h35.07v9.85h-11.85v48.69Z"/>
    <path class="cls-2" d="M1034.25,99.47c0,4.62-.45,8.78-1.36,12.49-.91,3.71-2.27,6.89-4.08,9.53-1.82,2.64-4.12,4.66-6.91,6.05s-6.07,2.08-9.83,2.08-7.04-.71-9.83-2.12c-2.79-1.41-5.1-3.44-6.93-6.09s-3.2-5.82-4.1-9.53c-.91-3.71-1.36-7.87-1.36-12.49,0-6.46.83-11.92,2.48-16.4,1.65-4.47,4.14-7.86,7.45-10.17,3.31-2.31,7.42-3.46,12.33-3.46s9.2,1.22,12.47,3.66c3.27,2.44,5.7,5.91,7.29,10.41,1.59,4.5,2.38,9.84,2.38,16.04ZM1001.78,99.47c0,4.4.38,8.11,1.14,11.11.76,3,1.91,5.27,3.44,6.79s3.45,2.28,5.75,2.28,4.24-.75,5.75-2.24c1.51-1.49,2.63-3.74,3.38-6.73.75-2.99,1.12-6.73,1.12-11.21,0-6.7-.83-11.74-2.5-15.13-1.67-3.39-4.25-5.08-7.75-5.08-2.3,0-4.21.76-5.75,2.28s-2.68,3.78-3.44,6.79c-.76,3-1.14,6.72-1.14,11.15Z"/>
    <path class="cls-2" d="M1055.11,128.82h-11.41v-58.54h27.63v9.69h-16.22v15.78h15.13v9.69h-15.13v23.38Z"/>
    <path class="cls-2" d="M1123.66,128.82h-27.79v-58.54h27.79v9.69h-16.34v13.57h15.17v9.73h-15.17v15.7h16.34v9.85Z"/>
    <path class="cls-2" d="M1172.43,98.59c0,6.54-.97,12.05-2.92,16.54-1.95,4.48-4.78,7.89-8.49,10.21-3.71,2.32-8.25,3.48-13.61,3.48h-14.33v-58.54h15.33c5.07,0,9.4,1.08,12.99,3.24,3.59,2.16,6.33,5.35,8.21,9.55,1.88,4.2,2.82,9.38,2.82,15.52ZM1160.61,99.03c0-4.35-.46-7.92-1.38-10.71-.92-2.79-2.29-4.85-4.1-6.19-1.82-1.33-4.06-2-6.73-2h-3.88v38.76h3.04c4.46,0,7.75-1.63,9.87-4.9,2.12-3.27,3.18-8.25,3.18-14.95Z"/>
    <path class="cls-2" d="M1220.15,70.28v39c0,4.4-.73,8.11-2.2,11.13-1.47,3.02-3.64,5.31-6.53,6.87s-6.46,2.34-10.73,2.34c-6.17,0-10.9-1.7-14.21-5.1-3.31-3.4-4.96-8.43-4.96-15.07v-39.16h11.45v38.48c0,3.92.67,6.72,2,8.39,1.33,1.67,3.28,2.5,5.85,2.5,1.81,0,3.3-.37,4.46-1.12,1.16-.75,2.03-1.92,2.6-3.5.57-1.59.86-3.7.86-6.35v-38.4h11.41Z"/>
    <path class="cls-2" d="M1252.18,79.25c-1.87,0-3.5.49-4.88,1.48-1.39.99-2.54,2.4-3.46,4.24-.92,1.84-1.61,4.01-2.06,6.51-.45,2.5-.68,5.24-.68,8.23,0,4.3.43,7.94,1.3,10.93.87,2.99,2.15,5.26,3.86,6.81,1.71,1.55,3.83,2.32,6.37,2.32,1.92,0,3.78-.3,5.57-.9,1.79-.6,3.59-1.34,5.41-2.22v10.09c-1.87.99-3.82,1.72-5.87,2.18-2.04.47-4.26.7-6.67.7-4.72,0-8.71-1.18-11.95-3.54-3.24-2.36-5.71-5.79-7.39-10.27s-2.52-9.88-2.52-16.18c0-4.38.49-8.41,1.46-12.09s2.42-6.87,4.32-9.57c1.91-2.7,4.24-4.79,6.99-6.29,2.75-1.49,5.91-2.24,9.49-2.24,2.48,0,4.89.31,7.23.92,2.34.61,4.58,1.55,6.75,2.8l-3.36,9.45c-1.6-1.01-3.21-1.83-4.83-2.44-1.62-.61-3.3-.92-5.06-.92Z"/>
    <path class="cls-2" d="M1301.11,128.82l-3.28-14.05h-14.69l-3.28,14.05h-12.29l15.5-58.58h14.65l15.66,58.58h-12.25ZM1295.87,104.84l-3.36-15.09c-.24-1.2-.49-2.44-.74-3.7-.25-1.27-.49-2.5-.7-3.7-.21-1.2-.41-2.31-.6-3.32-.11.96-.27,2.05-.5,3.26-.23,1.21-.46,2.46-.7,3.72-.24,1.27-.49,2.48-.76,3.62l-3.32,15.21h10.69Z"/>
    <path class="cls-2" d="M1337.87,128.82h-11.33v-48.69h-11.89v-9.85h35.07v9.85h-11.85v48.69Z"/>
    <path class="cls-2" d="M1356.69,128.82v-58.54h11.45v58.54h-11.45Z"/>
    <path class="cls-2" d="M1421.99,99.47c0,4.62-.45,8.78-1.36,12.49-.91,3.71-2.27,6.89-4.08,9.53-1.82,2.64-4.12,4.66-6.91,6.05s-6.07,2.08-9.83,2.08-7.04-.71-9.83-2.12c-2.79-1.41-5.1-3.44-6.93-6.09s-3.2-5.82-4.1-9.53c-.91-3.71-1.36-7.87-1.36-12.49,0-6.46.83-11.92,2.48-16.4,1.65-4.47,4.14-7.86,7.45-10.17,3.31-2.31,7.42-3.46,12.33-3.46s9.2,1.22,12.47,3.66c3.27,2.44,5.7,5.91,7.29,10.41,1.59,4.5,2.38,9.84,2.38,16.04ZM1389.52,99.47c0,4.4.38,8.11,1.14,11.11.76,3,1.91,5.27,3.44,6.79s3.45,2.28,5.75,2.28,4.24-.75,5.75-2.24c1.51-1.49,2.63-3.74,3.38-6.73.75-2.99,1.12-6.73,1.12-11.21,0-6.7-.83-11.74-2.5-15.13-1.67-3.39-4.25-5.08-7.75-5.08-2.3,0-4.21.76-5.75,2.28s-2.68,3.78-3.44,6.79c-.76,3-1.14,6.72-1.14,11.15Z"/>
    <path class="cls-2" d="M1474.2,128.82h-13.69l-18.82-41.56h-.32c.16,1.92.29,3.74.38,5.45.09,1.71.16,3.3.2,4.78.04,1.48.06,2.85.06,4.1v27.23h-10.57v-58.54h13.61l18.74,40.68h.32c-.11-1.81-.2-3.54-.28-5.17-.08-1.63-.15-3.16-.2-4.6-.05-1.44-.08-2.8-.08-4.08v-26.83h10.65v58.54Z"/>
    <path class="cls-2" d="M1513.44,128.82l-3.28-14.05h-14.69l-3.28,14.05h-12.29l15.5-58.58h14.65l15.66,58.58h-12.25ZM1508.19,104.84l-3.36-15.09c-.24-1.2-.49-2.44-.74-3.7-.25-1.27-.49-2.5-.7-3.7-.21-1.2-.41-2.31-.6-3.32-.11.96-.27,2.05-.5,3.26-.23,1.21-.46,2.46-.7,3.72-.24,1.27-.49,2.48-.76,3.62l-3.32,15.21h10.69Z"/>
    <path class="cls-2" d="M1531.38,128.82v-58.54h11.45v48.69h17.22v9.85h-28.67Z"/>
    <path class="cls-2" d="M539.97,145.28c6.25,0,10.88,1.56,13.91,4.68,3.03,3.12,4.54,7.61,4.54,13.45,0,2.88-.37,5.53-1.12,7.93-.75,2.4-1.9,4.48-3.44,6.23-1.55,1.75-3.52,3.1-5.93,4.06s-5.26,1.44-8.57,1.44h-3.56v20.74h-11.45v-58.54h15.62ZM539.17,154.97h-3.36v18.38h2.4c1.89,0,3.5-.33,4.8-.98s2.29-1.7,2.96-3.14c.67-1.44,1-3.32,1-5.65,0-2.96-.65-5.14-1.94-6.53-1.29-1.39-3.25-2.08-5.87-2.08Z"/>
    <path class="cls-2" d="M596.3,186.84c0,3.52-.74,6.62-2.22,9.29-1.48,2.67-3.57,4.75-6.27,6.25-2.7,1.49-5.91,2.24-9.65,2.24-1.71,0-3.36-.11-4.96-.32-1.6-.21-3.16-.56-4.68-1.04s-3.04-1.11-4.56-1.88v-11.49c2.29,1.36,4.66,2.42,7.09,3.18,2.43.76,4.71,1.14,6.85,1.14,1.55,0,2.83-.27,3.84-.82,1.01-.55,1.76-1.3,2.24-2.26s.72-2.03.72-3.2c0-1.31-.25-2.46-.76-3.44-.51-.99-1.39-1.97-2.64-2.94-1.25-.97-2.98-2.08-5.17-3.3-1.63-.93-3.16-1.92-4.58-2.96s-2.68-2.21-3.74-3.5c-1.07-1.29-1.9-2.82-2.48-4.56-.59-1.75-.88-3.82-.88-6.23-.03-3.34.65-6.25,2.02-8.73,1.37-2.48,3.36-4.41,5.96-5.79,2.6-1.37,5.71-2.05,9.31-2.02,2.51,0,4.95.33,7.33.98,2.38.65,4.71,1.58,7.01,2.78l-3.28,9.89c-2.06-1.15-3.96-2-5.73-2.56s-3.46-.84-5.08-.84c-1.36,0-2.49.25-3.38.74-.89.49-1.58,1.17-2.06,2.04-.48.87-.72,1.86-.72,2.98,0,1.39.25,2.56.76,3.5.51.95,1.41,1.88,2.7,2.8,1.29.92,3.08,2.01,5.34,3.26,2.54,1.42,4.67,2.91,6.39,4.48,1.72,1.58,3.04,3.36,3.94,5.35.91,1.99,1.36,4.32,1.36,6.99Z"/>
    <path class="cls-2" d="M619.61,169.11l8.69-23.82h11.93l-15.01,35.92v22.62h-11.37v-22.26l-14.97-36.28h12.01l8.73,23.82Z"/>
    <path class="cls-2" d="M666.93,154.25c-1.87,0-3.5.49-4.88,1.48-1.39.99-2.54,2.4-3.46,4.24-.92,1.84-1.61,4.01-2.06,6.51-.45,2.5-.68,5.24-.68,8.23,0,4.3.43,7.94,1.3,10.93.87,2.99,2.15,5.26,3.86,6.81,1.71,1.55,3.83,2.32,6.37,2.32,1.92,0,3.78-.3,5.57-.9,1.79-.6,3.59-1.34,5.41-2.22v10.09c-1.87.99-3.82,1.72-5.87,2.18-2.04.47-4.26.7-6.67.7-4.72,0-8.71-1.18-11.95-3.54-3.24-2.36-5.71-5.79-7.39-10.27s-2.52-9.88-2.52-16.18c0-4.38.49-8.41,1.46-12.09s2.42-6.87,4.32-9.57c1.91-2.7,4.24-4.79,6.99-6.29,2.75-1.49,5.91-2.24,9.49-2.24,2.48,0,4.89.31,7.23.92,2.34.61,4.58,1.55,6.75,2.8l-3.36,9.45c-1.6-1.01-3.21-1.83-4.83-2.44-1.62-.61-3.3-.92-5.06-.92Z"/>
    <path class="cls-2" d="M727.15,203.82h-11.45v-25.5h-16.26v25.5h-11.45v-58.54h11.45v23.14h16.26v-23.14h11.45v58.54Z"/>
    <path class="cls-2" d="M781,174.47c0,4.62-.45,8.78-1.36,12.49-.91,3.71-2.27,6.89-4.08,9.53-1.82,2.64-4.12,4.66-6.91,6.05s-6.07,2.08-9.83,2.08-7.04-.71-9.83-2.12c-2.79-1.41-5.1-3.44-6.93-6.09s-3.2-5.82-4.1-9.53c-.91-3.71-1.36-7.87-1.36-12.49,0-6.46.83-11.92,2.48-16.4,1.65-4.47,4.14-7.86,7.45-10.17,3.31-2.31,7.42-3.46,12.33-3.46s9.2,1.22,12.47,3.66c3.27,2.44,5.7,5.91,7.29,10.41,1.59,4.5,2.38,9.84,2.38,16.04ZM748.53,174.47c0,4.4.38,8.11,1.14,11.11.76,3,1.91,5.27,3.44,6.79s3.45,2.28,5.75,2.28,4.24-.75,5.75-2.24c1.51-1.49,2.63-3.74,3.38-6.73.75-2.99,1.12-6.73,1.12-11.21,0-6.7-.83-11.74-2.5-15.13-1.67-3.39-4.25-5.08-7.75-5.08-2.3,0-4.21.76-5.75,2.28s-2.68,3.78-3.44,6.79c-.76,3-1.14,6.72-1.14,11.15Z"/>
    <path class="cls-2" d="M790.45,203.82v-58.54h11.45v48.69h17.22v9.85h-28.67Z"/>
    <path class="cls-2" d="M868.81,174.47c0,4.62-.45,8.78-1.36,12.49-.91,3.71-2.27,6.89-4.08,9.53-1.82,2.64-4.12,4.66-6.91,6.05s-6.07,2.08-9.83,2.08-7.04-.71-9.83-2.12c-2.79-1.41-5.1-3.44-6.93-6.09s-3.2-5.82-4.1-9.53c-.91-3.71-1.36-7.87-1.36-12.49,0-6.46.83-11.92,2.48-16.4,1.65-4.47,4.14-7.86,7.45-10.17,3.31-2.31,7.42-3.46,12.33-3.46s9.2,1.22,12.47,3.66c3.27,2.44,5.7,5.91,7.29,10.41,1.59,4.5,2.38,9.84,2.38,16.04ZM836.34,174.47c0,4.4.38,8.11,1.14,11.11.76,3,1.91,5.27,3.44,6.79s3.45,2.28,5.75,2.28,4.24-.75,5.75-2.24c1.51-1.49,2.63-3.74,3.38-6.73.75-2.99,1.12-6.73,1.12-11.21,0-6.7-.83-11.74-2.5-15.13-1.67-3.39-4.25-5.08-7.75-5.08-2.3,0-4.21.76-5.75,2.28s-2.68,3.78-3.44,6.79c-.76,3-1.14,6.72-1.14,11.15Z"/>
    <path class="cls-2" d="M898.16,170.87h19.26v30.51c-2.83,1.07-5.75,1.88-8.75,2.42-3,.55-6.12.82-9.35.82-5.04,0-9.26-1.21-12.65-3.64-3.39-2.43-5.96-5.9-7.71-10.41-1.75-4.51-2.62-9.89-2.62-16.14s.98-11.44,2.94-15.92c1.96-4.47,4.83-7.93,8.61-10.39,3.78-2.46,8.38-3.68,13.79-3.68,2.88,0,5.61.34,8.17,1.02s4.88,1.56,6.97,2.62l-3.48,9.45c-1.71-1.04-3.51-1.85-5.41-2.42-1.9-.57-3.87-.86-5.93-.86-2.99,0-5.5.8-7.55,2.4-2.04,1.6-3.6,3.92-4.66,6.97-1.07,3.04-1.6,6.74-1.6,11.09,0,4.03.43,7.55,1.28,10.57.85,3.02,2.15,5.35,3.88,7.01,1.73,1.66,3.96,2.48,6.69,2.48,1.17,0,2.28-.08,3.32-.24s2-.39,2.88-.68v-13.29h-8.09v-9.69Z"/>
    <path class="cls-2" d="M942.84,169.11l8.69-23.82h11.93l-15.01,35.92v22.62h-11.37v-22.26l-14.97-36.28h12.01l8.73,23.82Z"/>
    <path class="cls-2" d="M1000.82,144.52c2.88,0,5.35.52,7.41,1.56,2.05,1.04,3.62,2.54,4.7,4.5,1.08,1.96,1.62,4.32,1.62,7.07,0,3.23-.79,6.09-2.38,8.59-1.59,2.5-3.76,4.77-6.51,6.83l7.53,9.97c.67-1.39,1.24-2.94,1.72-4.64.48-1.71.87-3.56,1.16-5.57h11.53c-.51,3.18-1.35,6.45-2.52,9.83-1.17,3.38-2.7,6.51-4.56,9.39l9.41,11.77h-13.85l-3.2-4.44c-1.36,1.09-2.8,2.04-4.32,2.82-1.52.79-3.14,1.39-4.86,1.8-1.72.41-3.62.62-5.71.62-3.55,0-6.54-.69-8.97-2.06-2.43-1.37-4.25-3.3-5.47-5.79s-1.82-5.37-1.82-8.65c0-2.43.36-4.63,1.08-6.61.72-1.98,1.81-3.77,3.28-5.39,1.47-1.61,3.3-3.09,5.49-4.42-1.17-1.57-2.13-3.08-2.86-4.52-.74-1.44-1.28-2.93-1.64-4.46-.36-1.53-.54-3.18-.54-4.94,0-2.7.59-5.04,1.78-7.03,1.19-1.99,2.86-3.52,5-4.6s4.65-1.62,7.51-1.62ZM997.05,178.51c-.91.8-1.65,1.64-2.22,2.52s-1,1.84-1.28,2.86c-.28,1.03-.42,2.18-.42,3.46,0,2.19.58,4,1.74,5.43,1.16,1.43,2.71,2.14,4.66,2.14,1.47,0,2.78-.29,3.92-.86s2.24-1.41,3.28-2.5l-9.69-13.05ZM1000.7,152.77c-1.04,0-1.94.42-2.7,1.26-.76.84-1.14,2.16-1.14,3.94,0,1.31.28,2.69.84,4.14.56,1.46,1.35,2.86,2.36,4.22,1.47-1.15,2.56-2.47,3.28-3.96.72-1.49,1.08-3.08,1.08-4.76s-.35-2.84-1.06-3.64c-.71-.8-1.6-1.2-2.66-1.2Z"/>
    <path class="cls-2" d="M1051.35,203.82v-58.54h11.45v48.69h17.22v9.85h-28.67Z"/>
    <path class="cls-2" d="M1115.01,203.82h-27.79v-58.54h27.79v9.69h-16.34v13.57h15.17v9.73h-15.17v15.7h16.34v9.85Z"/>
    <path class="cls-2" d="M1152.29,203.82l-3.28-14.05h-14.69l-3.28,14.05h-12.29l15.5-58.58h14.65l15.66,58.58h-12.25ZM1147.04,179.84l-3.36-15.09c-.24-1.2-.49-2.44-.74-3.7-.25-1.27-.49-2.5-.7-3.7-.21-1.2-.41-2.31-.6-3.32-.11.96-.27,2.05-.5,3.26-.23,1.21-.46,2.46-.7,3.72-.24,1.27-.49,2.48-.76,3.62l-3.32,15.21h10.69Z"/>
    <path class="cls-2" d="M1184.52,145.28c4.51,0,8.25.63,11.23,1.88,2.98,1.25,5.19,3.14,6.65,5.67,1.45,2.52,2.18,5.71,2.18,9.55,0,2.43-.33,4.64-1,6.63-.67,1.99-1.66,3.73-2.98,5.23-1.32,1.5-2.96,2.79-4.9,3.88l13.09,25.71h-12.61l-10.49-22.86h-4v22.86h-11.45v-58.54h14.29ZM1184.28,154.93h-2.6v16.9h2.84c2.83,0,4.94-.74,6.33-2.22,1.39-1.48,2.08-3.72,2.08-6.71,0-2.75-.71-4.76-2.12-6.05-1.42-1.28-3.59-1.92-6.53-1.92Z"/>
    <path class="cls-2" d="M1257.43,203.82h-13.69l-18.82-41.56h-.32c.16,1.92.29,3.74.38,5.45.09,1.71.16,3.3.2,4.78.04,1.48.06,2.85.06,4.1v27.23h-10.57v-58.54h13.61l18.74,40.68h.32c-.11-1.81-.2-3.54-.28-5.17-.08-1.63-.15-3.16-.2-4.6-.05-1.44-.08-2.8-.08-4.08v-26.83h10.65v58.54Z"/>
    <path class="cls-2" d="M1268.8,203.82v-58.54h11.45v58.54h-11.45Z"/>
    <path class="cls-2" d="M1334.38,203.82h-13.69l-18.82-41.56h-.32c.16,1.92.29,3.74.38,5.45.09,1.71.16,3.3.2,4.78.04,1.48.06,2.85.06,4.1v27.23h-10.57v-58.54h13.61l18.74,40.68h.32c-.11-1.81-.2-3.54-.28-5.17-.08-1.63-.15-3.16-.2-4.6-.05-1.44-.08-2.8-.08-4.08v-26.83h10.65v58.54Z"/>
    <path class="cls-2" d="M1365.65,170.87h19.26v30.51c-2.83,1.07-5.75,1.88-8.75,2.42-3,.55-6.12.82-9.35.82-5.04,0-9.26-1.21-12.65-3.64-3.39-2.43-5.96-5.9-7.71-10.41-1.75-4.51-2.62-9.89-2.62-16.14s.98-11.44,2.94-15.92c1.96-4.47,4.83-7.93,8.61-10.39,3.78-2.46,8.38-3.68,13.79-3.68,2.88,0,5.61.34,8.17,1.02s4.88,1.56,6.97,2.62l-3.48,9.45c-1.71-1.04-3.51-1.85-5.41-2.42-1.9-.57-3.87-.86-5.93-.86-2.99,0-5.5.8-7.55,2.4-2.04,1.6-3.6,3.92-4.66,6.97-1.07,3.04-1.6,6.74-1.6,11.09,0,4.03.43,7.55,1.28,10.57.85,3.02,2.15,5.35,3.88,7.01,1.73,1.66,3.96,2.48,6.69,2.48,1.17,0,2.28-.08,3.32-.24s2-.39,2.88-.68v-13.29h-8.09v-9.69Z"/>
    <path class="cls-2" d="M1440.81,186.84c0,3.52-.74,6.62-2.22,9.29-1.48,2.67-3.57,4.75-6.27,6.25-2.7,1.49-5.91,2.24-9.65,2.24-1.71,0-3.36-.11-4.96-.32-1.6-.21-3.16-.56-4.68-1.04s-3.04-1.11-4.56-1.88v-11.49c2.29,1.36,4.66,2.42,7.09,3.18,2.43.76,4.71,1.14,6.85,1.14,1.55,0,2.83-.27,3.84-.82,1.01-.55,1.76-1.3,2.24-2.26s.72-2.03.72-3.2c0-1.31-.25-2.46-.76-3.44-.51-.99-1.39-1.97-2.64-2.94-1.25-.97-2.98-2.08-5.17-3.3-1.63-.93-3.16-1.92-4.58-2.96s-2.68-2.21-3.74-3.5c-1.07-1.29-1.9-2.82-2.48-4.56-.59-1.75-.88-3.82-.88-6.23-.03-3.34.65-6.25,2.02-8.73,1.37-2.48,3.36-4.41,5.96-5.79,2.6-1.37,5.71-2.05,9.31-2.02,2.51,0,4.95.33,7.33.98,2.38.65,4.71,1.58,7.01,2.78l-3.28,9.89c-2.06-1.15-3.96-2-5.73-2.56s-3.46-.84-5.08-.84c-1.36,0-2.49.25-3.38.74-.89.49-1.58,1.17-2.06,2.04-.48.87-.72,1.86-.72,2.98,0,1.39.25,2.56.76,3.5.51.95,1.41,1.88,2.7,2.8,1.29.92,3.08,2.01,5.34,3.26,2.54,1.42,4.67,2.91,6.39,4.48,1.72,1.58,3.04,3.36,3.94,5.35.91,1.99,1.36,4.32,1.36,6.99Z"/>
    <path class="cls-2" d="M1464.11,169.11l8.69-23.82h11.93l-15.01,35.92v22.62h-11.37v-22.26l-14.97-36.28h12.01l8.73,23.82Z"/>
    <path class="cls-2" d="M1519.88,186.84c0,3.52-.74,6.62-2.22,9.29-1.48,2.67-3.57,4.75-6.27,6.25-2.7,1.49-5.91,2.24-9.65,2.24-1.71,0-3.36-.11-4.96-.32-1.6-.21-3.16-.56-4.68-1.04s-3.04-1.11-4.56-1.88v-11.49c2.29,1.36,4.66,2.42,7.09,3.18,2.43.76,4.71,1.14,6.85,1.14,1.55,0,2.83-.27,3.84-.82,1.01-.55,1.76-1.3,2.24-2.26s.72-2.03.72-3.2c0-1.31-.25-2.46-.76-3.44-.51-.99-1.39-1.97-2.64-2.94-1.25-.97-2.98-2.08-5.17-3.3-1.63-.93-3.16-1.92-4.58-2.96s-2.68-2.21-3.74-3.5c-1.07-1.29-1.9-2.82-2.48-4.56-.59-1.75-.88-3.82-.88-6.23-.03-3.34.65-6.25,2.02-8.73,1.37-2.48,3.36-4.41,5.96-5.79,2.6-1.37,5.71-2.05,9.31-2.02,2.51,0,4.95.33,7.33.98,2.38.65,4.71,1.58,7.01,2.78l-3.28,9.89c-2.06-1.15-3.96-2-5.73-2.56s-3.46-.84-5.08-.84c-1.36,0-2.49.25-3.38.74-.89.49-1.58,1.17-2.06,2.04-.48.87-.72,1.86-.72,2.98,0,1.39.25,2.56.76,3.5.51.95,1.41,1.88,2.7,2.8,1.29.92,3.08,2.01,5.34,3.26,2.54,1.42,4.67,2.91,6.39,4.48,1.72,1.58,3.04,3.36,3.94,5.35.91,1.99,1.36,4.32,1.36,6.99Z"/>
    <path class="cls-2" d="M1546.95,203.82h-11.33v-48.69h-11.89v-9.85h35.07v9.85h-11.85v48.69Z"/>
    <path class="cls-2" d="M1593.56,203.82h-27.79v-58.54h27.79v9.69h-16.34v13.57h15.17v9.73h-15.17v15.7h16.34v9.85Z"/>
    <path class="cls-2" d="M1625.39,203.82l-12.09-43.72h-.32c.11,1.63.21,3.3.3,5,.09,1.71.16,3.34.2,4.9.04,1.56.06,2.97.06,4.22v29.59h-10.57v-58.54h15.74l11.45,41h.24l11.61-41h15.74v58.54h-10.93v-29.75c0-1.33.03-2.77.08-4.3.05-1.53.11-3.12.18-4.76.07-1.64.15-3.26.26-4.86h-.32l-12.37,43.68h-9.25Z"/>
    <path class="cls-2" d="M1698.58,186.84c0,3.52-.74,6.62-2.22,9.29-1.48,2.67-3.57,4.75-6.27,6.25-2.7,1.49-5.91,2.24-9.65,2.24-1.71,0-3.36-.11-4.96-.32-1.6-.21-3.16-.56-4.68-1.04s-3.04-1.11-4.56-1.88v-11.49c2.29,1.36,4.66,2.42,7.09,3.18,2.43.76,4.71,1.14,6.85,1.14,1.55,0,2.83-.27,3.84-.82,1.01-.55,1.76-1.3,2.24-2.26s.72-2.03.72-3.2c0-1.31-.25-2.46-.76-3.44-.51-.99-1.39-1.97-2.64-2.94-1.25-.97-2.98-2.08-5.17-3.3-1.63-.93-3.16-1.92-4.58-2.96s-2.68-2.21-3.74-3.5c-1.07-1.29-1.9-2.82-2.48-4.56-.59-1.75-.88-3.82-.88-6.23-.03-3.34.65-6.25,2.02-8.73,1.37-2.48,3.36-4.41,5.96-5.79,2.6-1.37,5.71-2.05,9.31-2.02,2.51,0,4.95.33,7.33.98,2.38.65,4.71,1.58,7.01,2.78l-3.28,9.89c-2.06-1.15-3.96-2-5.73-2.56s-3.46-.84-5.08-.84c-1.36,0-2.49.25-3.38.74-.89.49-1.58,1.17-2.06,2.04-.48.87-.72,1.86-.72,2.98,0,1.39.25,2.56.76,3.5.51.95,1.41,1.88,2.7,2.8,1.29.92,3.08,2.01,5.34,3.26,2.54,1.42,4.67,2.91,6.39,4.48,1.72,1.58,3.04,3.36,3.94,5.35.91,1.99,1.36,4.32,1.36,6.99Z"/>
  </g>
  <g>
    <rect class="cls-2" x="457.49" y="58.34" width="5.8" height="157.07"/>
    <path class="cls-2" d="M395.38,181.87v-111.64h-28.46v104.62c-3.04.38-11.57.57-17.27.57-6.26,0-15.56-.19-17.64-.57v-104.62h-37s8.92,6.26,8.92,15.75v112.78l1.71.57c.57.19,15.56,4.17,44.02,4.17,25.8,0,49.33-5.12,49.52-5.31l4.93-.95s-8.73-2.09-8.73-15.37ZM383.81,190.22s-8.73,2.47-34.34,2.47c-20.11,0-34.72-2.47-34.72-2.47v-109.17h6.07v103.67s13.47,1.9,28.65,1.9c21.82,0,28.27-1.9,28.27-1.9v-103.67h6.07v109.17Z"/>
    <g>
      <path class="cls-2" d="M129.78,65.77c-29.79,0-53.31,5.5-53.5,5.5l-4.74,1.14,3.98,2.85c4.36,3.23,6.07,6.45,6.26,11.57,0,0-.19,96.56,0,101.69,0,4.74-1.9,7.59-6.26,11l-5.5,3.98h51.8l-5.5-3.98s-6.07-5.12-5.88-11v-34.33h54.64c1.9.19,4.74,1.33,4.74,1.33l3.6,2.28v-35.29l-3.42,2.09s-1.9,1.14-4.55,1.14h-55.02v-31.12s11.19-1.52,17.26-1.52,22.2,1.71,29.79,4.55c8.73,3.42,15.94,9.87,15.94,9.87v-37l-1.9-.38c-.19,0-18.02-4.36-41.74-4.36ZM164.31,88.91s-4.93-2.47-13.09-3.79c-8.35-1.52-11.76-1.9-23.34-2.09-15.94-.38-28.46,1.9-28.46,1.9v51.61h63.18v6.64h-63.18v50.46h-6.83l.19-114.4s13.47-3.04,34.91-3.04c11.57,0,23.34.76,36.62,3.04v9.68Z"/>
      <path class="cls-1" d="M92.78,79.24l-.19,114.4h6.83v-50.46h63.18v-6.64h-63.18v-51.61s12.52-2.28,28.46-1.9c11.57.19,14.99.57,23.34,2.09,8.16,1.33,13.09,3.79,13.09,3.79v-9.68c-13.28-2.28-25.04-3.04-36.62-3.04-21.44,0-34.91,3.04-34.91,3.04Z"/>
    </g>
    <path class="cls-1" d="M377.74,184.72s-6.45,1.9-28.27,1.9c-15.18,0-28.65-1.9-28.65-1.9v-103.67h-6.07v109.17s14.61,2.47,34.72,2.47c25.61,0,34.34-2.47,34.34-2.47v-109.17h-6.07v103.67Z"/>
    <g>
      <path class="cls-2" d="M284.49,182.82v-30.74c0-6.45-4.36-8.35-4.36-8.35l-59.01-36.43v-12.9c3.6-.57,7.02-1.14,22.01-.57,9.68.38,16.51,1.52,22.77,3.6,10.06,3.23,13.85,6.26,13.85,6.26l4.74,3.98-.19-37.38-2.28-.38c-.76-.19-21.82-4.17-44.21-4.17-28.27,0-48.76,5.12-49.71,5.31l-5.69,1.33,4.74,3.61c3.79,2.85,5.5,5.88,5.69,10.43l-.19,26.37c0,8.35,6.26,11.76,6.26,11.76l57.11,35.67v14.61c-3.41.57-8.16,1.14-22.96.57-9.87-.38-15.37-1.71-21.82-3.6-10.43-2.85-18.59-10.25-18.59-10.25v37.19l2.28.57c.95.19,20.87,4.17,43.45,4.17,28.27,0,49.71-5.12,50.66-5.31l5.88-1.33-4.93-3.6c-3.79-2.85-5.31-5.88-5.5-10.43ZM273.49,190.03s-12.9,2.85-33.01,2.85c-11.19,0-24.1-.76-36.62-2.85v-9.11s4.93,2.28,12.52,3.6c7.97,1.33,12.9,1.71,23.72,1.9,15.18.38,26.94-1.71,26.94-1.71v-24.85c0-5.5-5.5-8.54-5.5-8.54l-52.36-32.82s-5.31-3.23-5.31-9.3v-29.98s11.76-2.85,31.87-2.85c11,0,24.85.76,37.57,2.85v9.11s-4.74-2.28-12.33-3.6c-7.97-1.52-14.04-1.71-25.04-1.9-14.99-.38-25.8,1.71-25.8,1.71v22.58c0,5.12,5.12,7.97,5.12,7.97l53.31,33.01s4.93,2.66,4.93,8.54v33.39Z"/>
      <path class="cls-1" d="M268.56,148.1l-53.31-33.01s-5.12-2.85-5.12-7.97v-22.58s10.81-2.09,25.8-1.71c11,.19,17.08.38,25.04,1.9,7.59,1.33,12.33,3.6,12.33,3.6v-9.11c-12.71-2.09-26.56-2.85-37.57-2.85-20.11,0-31.87,2.85-31.87,2.85v29.98c0,6.07,5.31,9.3,5.31,9.3l52.36,32.82s5.5,3.03,5.5,8.54v24.85s-11.76,2.09-26.94,1.71c-10.81-.19-15.75-.57-23.72-1.9-7.59-1.33-12.52-3.6-12.52-3.6v9.11c12.52,2.09,25.42,2.85,36.62,2.85,20.11,0,33.01-2.85,33.01-2.85v-33.39c0-5.88-4.93-8.54-4.93-8.54Z"/>
    </g>
  </g>
</svg>