<?xml version="1.0" encoding="UTF-8"?>
<svg id="finals" xmlns="http://www.w3.org/2000/svg" viewBox="0 0 1754.07 269.13">
  <defs>
    <style>
      .cls-1 {
        fill: #ceb888;
      }

      .cls-1, .cls-2 {
        stroke-width: 0px;
      }

      .cls-2 {
        fill: #782f40;
      }
    </style>
  </defs>
  <g>
    <path class="cls-2" d="M531.84,199.45c-1.06,0-2,.19-2.84.58-.83.38-1.54.94-2.11,1.66s-1.01,1.6-1.32,2.63c-.3,1.02-.46,2.18-.46,3.46,0,1.71.24,3.18.73,4.41s1.22,2.18,2.21,2.85c.99.66,2.23.99,3.74.99.95,0,1.87-.09,2.75-.27s1.81-.43,2.75-.74v3.09c-.9.35-1.81.61-2.72.77s-1.98.24-3.18.24c-2.27,0-4.15-.47-5.64-1.41-1.49-.94-2.6-2.26-3.32-3.97-.73-1.71-1.09-3.7-1.09-5.99,0-1.67.23-3.21.69-4.59.46-1.39,1.14-2.59,2.03-3.6.89-1.01,1.99-1.8,3.29-2.35,1.3-.55,2.8-.83,4.5-.83,1.11,0,2.2.13,3.27.38s2.07.6,3,1.04l-1.27,3c-.77-.35-1.57-.66-2.41-.93-.84-.27-1.71-.4-2.6-.4Z"/>
    <path class="cls-2" d="M567.91,207.71c0,1.71-.21,3.26-.64,4.65-.43,1.4-1.07,2.6-1.93,3.61-.86,1.01-1.93,1.78-3.22,2.32-1.29.54-2.8.81-4.54.81s-3.3-.27-4.6-.81c-1.3-.54-2.38-1.31-3.23-2.32-.85-1.01-1.49-2.21-1.91-3.62s-.63-2.96-.63-4.68c0-2.28.37-4.27,1.12-5.97.75-1.7,1.89-3.02,3.44-3.97,1.54-.94,3.49-1.42,5.84-1.42s4.21.47,5.74,1.41,2.67,2.26,3.43,3.97c.76,1.71,1.14,3.71,1.14,6.01ZM551.02,207.71c0,1.71.23,3.18.7,4.43.46,1.25,1.18,2.21,2.14,2.88.96.67,2.2,1.01,3.72,1.01s2.75-.33,3.72-1.01c.96-.67,1.67-1.63,2.12-2.88.45-1.25.67-2.72.67-4.43,0-2.58-.52-4.61-1.54-6.09-1.03-1.47-2.67-2.21-4.93-2.21-1.51,0-2.76.33-3.73,1.01-.97.67-1.69,1.62-2.16,2.86s-.7,2.71-.7,4.43Z"/>
    <path class="cls-2" d="M578.86,218.81v-22.13h3.63v19.04h9.4v3.09h-13.03Z"/>
    <path class="cls-2" d="M601.91,218.81v-22.13h3.63v19.04h9.4v3.09h-13.03Z"/>
    <path class="cls-2" d="M637.49,218.81h-12.53v-22.13h12.53v3.06h-8.9v6.01h8.34v3.04h-8.34v6.95h8.9v3.07Z"/>
    <path class="cls-2" d="M657.39,206.79h8.25v11.11c-1.16.38-2.36.68-3.59.89-1.24.21-2.63.32-4.18.32-2.25,0-4.15-.45-5.71-1.34-1.55-.89-2.73-2.19-3.54-3.88s-1.21-3.75-1.21-6.16.45-4.32,1.35-6.02c.9-1.7,2.21-3.02,3.92-3.95s3.79-1.4,6.24-1.4c1.2,0,2.36.12,3.49.36,1.12.24,2.16.57,3.1.97l-1.29,3c-.75-.34-1.58-.64-2.5-.88-.92-.24-1.88-.36-2.88-.36-1.58,0-2.95.34-4.09,1.03-1.15.69-2.03,1.65-2.64,2.89-.62,1.24-.92,2.71-.92,4.41s.25,3.09.74,4.33c.5,1.24,1.27,2.21,2.32,2.9,1.05.69,2.42,1.04,4.09,1.04.83,0,1.54-.04,2.13-.14.59-.09,1.13-.19,1.63-.3v-5.69h-4.68v-3.12Z"/>
    <path class="cls-2" d="M689.68,218.81h-12.53v-22.13h12.53v3.06h-8.9v6.01h8.34v3.04h-8.34v6.95h8.9v3.07Z"/>
    <path class="cls-2" d="M734.55,207.71c0,1.71-.21,3.26-.64,4.65-.43,1.4-1.07,2.6-1.93,3.61-.86,1.01-1.93,1.78-3.22,2.32-1.29.54-2.8.81-4.54.81s-3.3-.27-4.6-.81c-1.3-.54-2.38-1.31-3.23-2.32-.85-1.01-1.49-2.21-1.91-3.62s-.63-2.96-.63-4.68c0-2.28.37-4.27,1.12-5.97.75-1.7,1.89-3.02,3.44-3.97,1.54-.94,3.49-1.42,5.84-1.42s4.21.47,5.74,1.41,2.67,2.26,3.43,3.97c.76,1.71,1.14,3.71,1.14,6.01ZM717.66,207.71c0,1.71.23,3.18.7,4.43.46,1.25,1.18,2.21,2.14,2.88.96.67,2.2,1.01,3.72,1.01s2.75-.33,3.72-1.01c.96-.67,1.67-1.63,2.12-2.88.45-1.25.67-2.72.67-4.43,0-2.58-.52-4.61-1.54-6.09-1.03-1.47-2.67-2.21-4.93-2.21-1.51,0-2.76.33-3.73,1.01-.97.67-1.69,1.62-2.16,2.86s-.7,2.71-.7,4.43Z"/>
    <path class="cls-2" d="M749.11,218.81h-3.6v-22.13h12.5v3.06h-8.9v6.9h8.33v3.06h-8.33v9.11Z"/>
    <path class="cls-2" d="M795.01,218.81h-12.53v-22.13h12.53v3.06h-8.9v6.01h8.34v3.04h-8.34v6.95h8.9v3.07Z"/>
    <path class="cls-2" d="M823.94,207.53c0,2.49-.46,4.57-1.39,6.24-.93,1.67-2.28,2.93-4.04,3.77s-3.9,1.26-6.39,1.26h-6.15v-22.13h6.81c2.29,0,4.27.41,5.93,1.23,1.67.82,2.95,2.04,3.86,3.65.91,1.61,1.36,3.6,1.36,5.97ZM820.14,207.64c0-1.81-.29-3.3-.86-4.47s-1.41-2.05-2.51-2.61c-1.1-.56-2.46-.85-4.06-.85h-3.1v16.06h2.57c2.66,0,4.66-.68,5.98-2.04,1.32-1.36,1.98-3.39,1.98-6.08Z"/>
    <path class="cls-2" d="M852.27,196.68v14.32c0,1.54-.33,2.93-.98,4.15-.65,1.22-1.63,2.19-2.94,2.9-1.31.71-2.96,1.07-4.95,1.07-2.84,0-5-.74-6.48-2.23-1.48-1.49-2.23-3.47-2.23-5.94v-14.26h3.65v13.94c0,1.85.43,3.21,1.3,4.09.87.88,2.17,1.32,3.89,1.32,1.18,0,2.15-.21,2.9-.63.75-.42,1.31-1.04,1.67-1.85.36-.81.54-1.79.54-2.94v-13.93h3.62Z"/>
    <path class="cls-2" d="M873.55,199.45c-1.06,0-2,.19-2.84.58-.83.38-1.54.94-2.11,1.66s-1.01,1.6-1.32,2.63c-.3,1.02-.46,2.18-.46,3.46,0,1.71.24,3.18.73,4.41s1.22,2.18,2.21,2.85c.99.66,2.23.99,3.74.99.95,0,1.87-.09,2.75-.27s1.81-.43,2.75-.74v3.09c-.9.35-1.81.61-2.72.77s-1.98.24-3.18.24c-2.27,0-4.15-.47-5.64-1.41-1.49-.94-2.6-2.26-3.32-3.97-.73-1.71-1.09-3.7-1.09-5.99,0-1.67.23-3.21.69-4.59.46-1.39,1.14-2.59,2.03-3.6.89-1.01,1.99-1.8,3.29-2.35,1.3-.55,2.8-.83,4.5-.83,1.11,0,2.2.13,3.27.38s2.07.6,3,1.04l-1.27,3c-.77-.35-1.57-.66-2.41-.93-.84-.27-1.71-.4-2.6-.4Z"/>
    <path class="cls-2" d="M903.68,218.81l-2.17-6.15h-8.46l-2.16,6.15h-3.83l8.23-22.22h4.03l8.22,22.22h-3.86ZM900.58,209.56l-2.1-6.07c-.08-.26-.2-.63-.35-1.1-.15-.47-.3-.96-.45-1.47-.15-.5-.28-.93-.38-1.27-.1.41-.22.88-.37,1.38s-.29.99-.42,1.44c-.14.45-.24.79-.31,1.02l-2.12,6.07h6.51Z"/>
    <path class="cls-2" d="M924.33,218.81h-3.65v-19.04h-6.48v-3.09h16.59v3.09h-6.46v19.04Z"/>
    <path class="cls-2" d="M940.37,218.81v-22.13h3.63v22.13h-3.63Z"/>
    <path class="cls-2" d="M975.68,207.71c0,1.71-.21,3.26-.64,4.65-.43,1.4-1.07,2.6-1.93,3.61-.86,1.01-1.93,1.78-3.22,2.32-1.29.54-2.8.81-4.54.81s-3.3-.27-4.6-.81c-1.3-.54-2.38-1.31-3.23-2.32-.85-1.01-1.49-2.21-1.91-3.62s-.63-2.96-.63-4.68c0-2.28.37-4.27,1.12-5.97.75-1.7,1.89-3.02,3.44-3.97,1.54-.94,3.49-1.42,5.84-1.42s4.21.47,5.74,1.41,2.67,2.26,3.43,3.97c.76,1.71,1.14,3.71,1.14,6.01ZM958.79,207.71c0,1.71.23,3.18.7,4.43.46,1.25,1.18,2.21,2.14,2.88.96.67,2.2,1.01,3.72,1.01s2.75-.33,3.72-1.01c.96-.67,1.67-1.63,2.12-2.88.45-1.25.67-2.72.67-4.43,0-2.58-.52-4.61-1.54-6.09-1.03-1.47-2.67-2.21-4.93-2.21-1.51,0-2.76.33-3.73,1.01-.97.67-1.69,1.62-2.16,2.86s-.7,2.71-.7,4.43Z"/>
    <path class="cls-2" d="M1005.1,218.81h-4.46l-10.84-17.67h-.14c.04.6.08,1.23.11,1.9.04.67.07,1.36.09,2.07.03.71.05,1.42.07,2.13v11.56h-3.3v-22.13h4.44l10.82,17.54h.11c-.02-.51-.04-1.1-.08-1.77s-.06-1.35-.08-2.07c-.03-.71-.04-1.4-.05-2.07v-11.64h3.31v22.13Z"/>
    <path class="cls-2" d="M1020.34,215.21l.21.35c-.18.73-.41,1.51-.7,2.35-.28.84-.59,1.68-.92,2.52-.33.84-.67,1.64-1.01,2.38h-2.6c.2-.82.4-1.67.6-2.57.2-.89.38-1.78.54-2.65.17-.87.3-1.67.4-2.38h3.48Z"/>
    <path class="cls-2" d="M1063.45,218.81h-3.63v-9.99h-10.19v9.99h-3.63v-22.13h3.63v9.05h10.19v-9.05h3.63v22.13Z"/>
    <path class="cls-2" d="M1088.02,218.81h-12.53v-22.13h12.53v3.06h-8.9v6.01h8.34v3.04h-8.34v6.95h8.9v3.07Z"/>
    <path class="cls-2" d="M1112.71,218.81l-2.17-6.15h-8.46l-2.16,6.15h-3.83l8.23-22.22h4.03l8.22,22.22h-3.86ZM1109.6,209.56l-2.1-6.07c-.08-.26-.2-.63-.35-1.1-.15-.47-.3-.96-.45-1.47-.15-.5-.28-.93-.38-1.27-.1.41-.22.88-.37,1.38s-.29.99-.42,1.44c-.14.45-.24.79-.31,1.02l-2.12,6.07h6.51Z"/>
    <path class="cls-2" d="M1125.69,218.81v-22.13h3.63v19.04h9.4v3.09h-13.03Z"/>
    <path class="cls-2" d="M1156.41,218.81h-3.65v-19.04h-6.48v-3.09h16.59v3.09h-6.46v19.04Z"/>
    <path class="cls-2" d="M1189.9,218.81h-3.63v-9.99h-10.19v9.99h-3.63v-22.13h3.63v9.05h10.19v-9.05h3.63v22.13Z"/>
    <path class="cls-2" d="M1222.81,196.35c1.14,0,2.14.19,3,.57.86.38,1.54.92,2.02,1.63.48.71.73,1.57.73,2.58,0,1.37-.42,2.53-1.27,3.47-.85.94-1.92,1.78-3.21,2.51l5.22,5.07c.48-.68.89-1.42,1.22-2.23.33-.81.61-1.67.84-2.57h3.68c-.31,1.25-.75,2.49-1.3,3.7-.55,1.22-1.26,2.33-2.1,3.34l4.5,4.39h-4.57l-2.24-2.19c-.62.5-1.28.95-1.99,1.32-.71.38-1.49.67-2.32.87s-1.76.3-2.77.3c-1.54,0-2.88-.25-4-.74-1.12-.49-1.98-1.2-2.59-2.13-.61-.92-.91-2.02-.91-3.29,0-1.06.18-1.97.54-2.73.36-.76.87-1.43,1.54-2.01.67-.58,1.46-1.13,2.39-1.66-.5-.58-.94-1.13-1.31-1.68-.37-.54-.65-1.11-.86-1.68s-.3-1.2-.3-1.88c0-1.03.25-1.91.76-2.65.5-.74,1.21-1.31,2.13-1.71.91-.4,1.98-.61,3.19-.61ZM1221.31,208.73c-.58.37-1.08.75-1.5,1.13-.42.38-.75.79-.98,1.24-.23.45-.34.98-.34,1.58,0,1.04.37,1.86,1.1,2.47.73.61,1.68.91,2.84.91,1.02,0,1.91-.15,2.68-.46.77-.31,1.44-.69,2.01-1.16l-5.81-5.71ZM1222.75,199.18c-.72,0-1.33.18-1.85.55-.52.37-.78.95-.78,1.73,0,.64.17,1.23.51,1.79.34.56.81,1.16,1.42,1.81,1.06-.58,1.85-1.16,2.36-1.73.51-.56.77-1.22.77-1.97,0-.71-.24-1.25-.71-1.63-.47-.38-1.04-.57-1.71-.57Z"/>
    <path class="cls-2" d="M1277.02,218.81h-3.63v-9.99h-10.19v9.99h-3.63v-22.13h3.63v9.05h10.19v-9.05h3.63v22.13Z"/>
    <path class="cls-2" d="M1306.44,196.68v14.32c0,1.54-.33,2.93-.98,4.15-.65,1.22-1.63,2.19-2.94,2.9-1.31.71-2.96,1.07-4.95,1.07-2.84,0-5-.74-6.48-2.23-1.48-1.49-2.23-3.47-2.23-5.94v-14.26h3.65v13.94c0,1.85.43,3.21,1.3,4.09.87.88,2.17,1.32,3.89,1.32,1.18,0,2.15-.21,2.9-.63.75-.42,1.31-1.04,1.67-1.85.36-.81.54-1.79.54-2.94v-13.93h3.62Z"/>
    <path class="cls-2" d="M1327.84,218.81l-6.37-18.47h-.14c.03.41.07.98.11,1.69.04.71.08,1.48.11,2.3.03.82.05,1.6.05,2.34v12.14h-3.3v-22.13h5.1l6.13,17.66h.09l6.33-17.66h5.1v22.13h-3.47v-12.32c0-.68,0-1.41.03-2.19.02-.78.05-1.53.08-2.23.04-.71.07-1.27.1-1.7h-.14l-6.6,18.44h-3.21Z"/>
    <path class="cls-2" d="M1366.76,218.81l-2.17-6.15h-8.46l-2.16,6.15h-3.83l8.23-22.22h4.03l8.22,22.22h-3.86ZM1363.66,209.56l-2.1-6.07c-.08-.26-.2-.63-.35-1.1-.15-.47-.3-.96-.45-1.47-.15-.5-.28-.93-.38-1.27-.1.41-.22.88-.37,1.38s-.29.99-.42,1.44c-.14.45-.24.79-.31,1.02l-2.12,6.07h6.51Z"/>
    <path class="cls-2" d="M1398.21,218.81h-4.46l-10.84-17.67h-.14c.04.6.08,1.23.11,1.9.04.67.07,1.36.09,2.07.03.71.05,1.42.07,2.13v11.56h-3.3v-22.13h4.44l10.82,17.54h.11c-.02-.51-.04-1.1-.08-1.77s-.06-1.35-.08-2.07c-.03-.71-.04-1.4-.05-2.07v-11.64h3.31v22.13Z"/>
    <path class="cls-2" d="M1437.25,212.78c0,1.31-.32,2.44-.96,3.39-.64.95-1.56,1.68-2.75,2.18-1.2.5-2.62.76-4.28.76-.81,0-1.58-.05-2.32-.14-.74-.09-1.43-.22-2.08-.4-.65-.18-1.25-.39-1.79-.64v-3.42c.91.39,1.92.75,3.03,1.07,1.11.32,2.24.48,3.39.48.94,0,1.72-.12,2.33-.37.62-.25,1.08-.6,1.38-1.06.31-.46.46-1,.46-1.61,0-.66-.18-1.21-.53-1.66-.35-.45-.89-.86-1.6-1.25-.71-.38-1.61-.79-2.69-1.23-.73-.28-1.42-.61-2.07-.98s-1.24-.81-1.76-1.32-.92-1.1-1.23-1.8c-.3-.7-.45-1.51-.45-2.44,0-1.25.3-2.32.91-3.22.61-.89,1.46-1.58,2.55-2.05,1.09-.47,2.37-.71,3.84-.71,1.16,0,2.25.12,3.28.37,1.02.25,2.03.59,3.02,1.02l-1.15,2.94c-.92-.37-1.8-.67-2.65-.9-.85-.23-1.72-.34-2.6-.34-.77,0-1.42.12-1.95.35-.53.23-.94.56-1.22.98-.28.42-.42.92-.42,1.48,0,.66.16,1.2.48,1.63.32.43.81.83,1.48,1.2.67.36,1.54.77,2.6,1.21,1.22.5,2.26,1.04,3.11,1.59s1.51,1.22,1.96,1.99c.46.77.68,1.74.68,2.9Z"/>
    <path class="cls-2" d="M1457.15,199.45c-1.06,0-2,.19-2.84.58-.83.38-1.54.94-2.11,1.66s-1.01,1.6-1.32,2.63c-.3,1.02-.46,2.18-.46,3.46,0,1.71.24,3.18.73,4.41s1.22,2.18,2.21,2.85c.99.66,2.23.99,3.74.99.95,0,1.87-.09,2.75-.27s1.81-.43,2.75-.74v3.09c-.9.35-1.81.61-2.72.77s-1.98.24-3.18.24c-2.27,0-4.15-.47-5.64-1.41-1.49-.94-2.6-2.26-3.32-3.97-.73-1.71-1.09-3.7-1.09-5.99,0-1.67.23-3.21.69-4.59.46-1.39,1.14-2.59,2.03-3.6.89-1.01,1.99-1.8,3.29-2.35,1.3-.55,2.8-.83,4.5-.83,1.11,0,2.2.13,3.27.38s2.07.6,3,1.04l-1.27,3c-.77-.35-1.57-.66-2.41-.93-.84-.27-1.71-.4-2.6-.4Z"/>
    <path class="cls-2" d="M1473.57,218.81v-22.13h3.63v22.13h-3.63Z"/>
    <path class="cls-2" d="M1501.76,218.81h-12.53v-22.13h12.53v3.06h-8.9v6.01h8.34v3.04h-8.34v6.95h8.9v3.07Z"/>
    <path class="cls-2" d="M1531.19,218.81h-4.46l-10.84-17.67h-.14c.04.6.08,1.23.11,1.9.04.67.07,1.36.09,2.07.03.71.05,1.42.07,2.13v11.56h-3.3v-22.13h4.44l10.82,17.54h.11c-.02-.51-.04-1.1-.08-1.77s-.06-1.35-.08-2.07c-.03-.71-.04-1.4-.05-2.07v-11.64h3.31v22.13Z"/>
    <path class="cls-2" d="M1552.64,199.45c-1.06,0-2,.19-2.84.58-.83.38-1.54.94-2.11,1.66s-1.01,1.6-1.32,2.63c-.3,1.02-.46,2.18-.46,3.46,0,1.71.24,3.18.73,4.41s1.22,2.18,2.21,2.85c.99.66,2.23.99,3.74.99.95,0,1.87-.09,2.75-.27s1.81-.43,2.75-.74v3.09c-.9.35-1.81.61-2.72.77s-1.98.24-3.18.24c-2.27,0-4.15-.47-5.64-1.41-1.49-.94-2.6-2.26-3.32-3.97-.73-1.71-1.09-3.7-1.09-5.99,0-1.67.23-3.21.69-4.59.46-1.39,1.14-2.59,2.03-3.6.89-1.01,1.99-1.8,3.29-2.35,1.3-.55,2.8-.83,4.5-.83,1.11,0,2.2.13,3.27.38s2.07.6,3,1.04l-1.27,3c-.77-.35-1.57-.66-2.41-.93-.84-.27-1.71-.4-2.6-.4Z"/>
    <path class="cls-2" d="M1581.59,218.81h-12.53v-22.13h12.53v3.06h-8.9v6.01h8.34v3.04h-8.34v6.95h8.9v3.07Z"/>
    <path class="cls-2" d="M1605.33,212.78c0,1.31-.32,2.44-.96,3.39-.64.95-1.56,1.68-2.75,2.18-1.2.5-2.62.76-4.28.76-.81,0-1.58-.05-2.32-.14-.74-.09-1.43-.22-2.08-.4-.65-.18-1.25-.39-1.79-.64v-3.42c.91.39,1.92.75,3.03,1.07,1.11.32,2.24.48,3.39.48.94,0,1.72-.12,2.33-.37.62-.25,1.08-.6,1.38-1.06.31-.46.46-1,.46-1.61,0-.66-.18-1.21-.53-1.66-.35-.45-.89-.86-1.6-1.25-.71-.38-1.61-.79-2.69-1.23-.73-.28-1.42-.61-2.07-.98s-1.24-.81-1.76-1.32-.92-1.1-1.23-1.8c-.3-.7-.45-1.51-.45-2.44,0-1.25.3-2.32.91-3.22.61-.89,1.46-1.58,2.55-2.05,1.09-.47,2.37-.71,3.84-.71,1.16,0,2.25.12,3.28.37,1.02.25,2.03.59,3.02,1.02l-1.15,2.94c-.92-.37-1.8-.67-2.65-.9-.85-.23-1.72-.34-2.6-.34-.77,0-1.42.12-1.95.35-.53.23-.94.56-1.22.98-.28.42-.42.92-.42,1.48,0,.66.16,1.2.48,1.63.32.43.81.83,1.48,1.2.67.36,1.54.77,2.6,1.21,1.22.5,2.26,1.04,3.11,1.59s1.51,1.22,1.96,1.99c.46.77.68,1.74.68,2.9Z"/>
  </g>
  <g>
    <path class="cls-2" d="M564.72,68.65c0,6.54-.97,12.05-2.92,16.54-1.95,4.48-4.78,7.89-8.49,10.21-3.71,2.32-8.25,3.48-13.61,3.48h-14.33v-58.54h15.33c5.07,0,9.4,1.08,12.99,3.24,3.59,2.16,6.33,5.34,8.21,9.55,1.88,4.2,2.82,9.38,2.82,15.51ZM552.91,69.09c0-4.35-.46-7.92-1.38-10.71-.92-2.79-2.29-4.85-4.1-6.19-1.82-1.33-4.06-2-6.73-2h-3.88v38.76h3.04c4.46,0,7.75-1.63,9.87-4.9,2.12-3.27,3.18-8.25,3.18-14.96Z"/>
    <path class="cls-2" d="M601.96,98.88h-27.79v-58.54h27.79v9.69h-16.34v13.57h15.17v9.73h-15.17v15.7h16.34v9.85Z"/>
    <path class="cls-2" d="M626.98,40.34c6.25,0,10.88,1.56,13.91,4.68,3.03,3.12,4.54,7.61,4.54,13.45,0,2.88-.37,5.53-1.12,7.93-.75,2.4-1.9,4.48-3.44,6.23-1.55,1.75-3.52,3.1-5.93,4.06s-5.26,1.44-8.57,1.44h-3.56v20.74h-11.45v-58.54h15.62ZM626.18,50.03h-3.36v18.38h2.4c1.89,0,3.5-.33,4.8-.98,1.31-.65,2.29-1.7,2.96-3.14.67-1.44,1-3.32,1-5.65,0-2.96-.65-5.14-1.94-6.53-1.29-1.39-3.25-2.08-5.87-2.08Z"/>
    <path class="cls-2" d="M681.67,98.88l-3.28-14.05h-14.69l-3.28,14.05h-12.29l15.5-58.58h14.65l15.66,58.58h-12.25ZM676.43,74.89l-3.36-15.09c-.24-1.2-.49-2.44-.74-3.7s-.49-2.5-.7-3.7c-.21-1.2-.41-2.31-.6-3.32-.11.96-.27,2.05-.5,3.26-.23,1.21-.46,2.46-.7,3.72-.24,1.27-.49,2.48-.76,3.62l-3.32,15.21h10.69Z"/>
    <path class="cls-2" d="M713.9,40.34c4.51,0,8.25.63,11.23,1.88,2.98,1.25,5.19,3.14,6.65,5.67,1.45,2.52,2.18,5.71,2.18,9.55,0,2.43-.33,4.64-1,6.63-.67,1.99-1.66,3.73-2.98,5.23-1.32,1.5-2.96,2.79-4.9,3.88l13.09,25.71h-12.61l-10.49-22.86h-4v22.86h-11.45v-58.54h14.29ZM713.66,49.99h-2.6v16.9h2.84c2.83,0,4.94-.74,6.33-2.22,1.39-1.48,2.08-3.72,2.08-6.71,0-2.75-.71-4.76-2.12-6.05-1.42-1.28-3.59-1.92-6.53-1.92Z"/>
    <path class="cls-2" d="M762.87,98.88h-11.33v-48.69h-11.89v-9.85h35.07v9.85h-11.85v48.69Z"/>
    <path class="cls-2" d="M804.11,98.88l-12.09-43.72h-.32c.11,1.63.21,3.3.3,5,.09,1.71.16,3.34.2,4.91.04,1.56.06,2.97.06,4.22v29.59h-10.57v-58.54h15.74l11.45,41h.24l11.61-41h15.74v58.54h-10.93v-29.75c0-1.33.03-2.77.08-4.3.05-1.54.11-3.12.18-4.77.07-1.64.15-3.26.26-4.86h-.32l-12.37,43.68h-9.25Z"/>
    <path class="cls-2" d="M875.58,98.88h-27.79v-58.54h27.79v9.69h-16.34v13.57h15.17v9.73h-15.17v15.7h16.34v9.85Z"/>
    <path class="cls-2" d="M927.75,98.88h-13.69l-18.82-41.56h-.32c.16,1.92.29,3.74.38,5.45.09,1.71.16,3.3.2,4.79.04,1.48.06,2.85.06,4.1v27.23h-10.57v-58.54h13.61l18.74,40.68h.32c-.11-1.81-.2-3.54-.28-5.17s-.15-3.16-.2-4.6c-.05-1.44-.08-2.8-.08-4.08v-26.83h10.65v58.54Z"/>
    <path class="cls-2" d="M957.94,98.88h-11.33v-48.69h-11.89v-9.85h35.07v9.85h-11.85v48.69Z"/>
    <path class="cls-2" d="M1035.26,69.53c0,4.62-.45,8.78-1.36,12.49-.91,3.71-2.27,6.89-4.08,9.53-1.82,2.64-4.12,4.66-6.91,6.05s-6.07,2.08-9.83,2.08-7.04-.71-9.83-2.12c-2.79-1.42-5.1-3.44-6.93-6.09s-3.2-5.82-4.1-9.53c-.91-3.71-1.36-7.87-1.36-12.49,0-6.46.83-11.92,2.48-16.4,1.65-4.47,4.14-7.86,7.45-10.17,3.31-2.31,7.42-3.46,12.33-3.46s9.2,1.22,12.47,3.66c3.27,2.44,5.7,5.91,7.29,10.41,1.59,4.5,2.38,9.84,2.38,16.04ZM1002.79,69.53c0,4.4.38,8.11,1.14,11.11.76,3,1.91,5.27,3.44,6.79s3.45,2.28,5.75,2.28,4.24-.75,5.75-2.24c1.51-1.5,2.63-3.74,3.38-6.73.75-2.99,1.12-6.73,1.12-11.21,0-6.7-.83-11.75-2.5-15.13-1.67-3.39-4.25-5.08-7.75-5.08-2.3,0-4.21.76-5.75,2.28s-2.68,3.78-3.44,6.79c-.76,3-1.14,6.72-1.14,11.15Z"/>
    <path class="cls-2" d="M1056.12,98.88h-11.41v-58.54h27.63v9.69h-16.22v15.78h15.13v9.69h-15.13v23.38Z"/>
    <path class="cls-2" d="M1124.67,98.88h-27.79v-58.54h27.79v9.69h-16.34v13.57h15.17v9.73h-15.17v15.7h16.34v9.85Z"/>
    <path class="cls-2" d="M1173.43,68.65c0,6.54-.97,12.05-2.92,16.54-1.95,4.48-4.78,7.89-8.49,10.21-3.71,2.32-8.25,3.48-13.61,3.48h-14.33v-58.54h15.33c5.07,0,9.4,1.08,12.99,3.24,3.59,2.16,6.33,5.34,8.21,9.55,1.88,4.2,2.82,9.38,2.82,15.51ZM1161.62,69.09c0-4.35-.46-7.92-1.38-10.71-.92-2.79-2.29-4.85-4.1-6.19-1.82-1.33-4.06-2-6.73-2h-3.88v38.76h3.04c4.46,0,7.75-1.63,9.87-4.9,2.12-3.27,3.18-8.25,3.18-14.96Z"/>
    <path class="cls-2" d="M1221.16,40.34v39c0,4.4-.73,8.12-2.2,11.13-1.47,3.02-3.64,5.3-6.53,6.87-2.88,1.56-6.46,2.34-10.73,2.34-6.17,0-10.9-1.7-14.21-5.11-3.31-3.4-4.96-8.43-4.96-15.07v-39.16h11.45v38.48c0,3.92.67,6.72,2,8.39,1.33,1.67,3.28,2.5,5.85,2.5,1.81,0,3.3-.37,4.46-1.12,1.16-.75,2.03-1.92,2.6-3.5.57-1.59.86-3.7.86-6.35v-38.4h11.41Z"/>
    <path class="cls-2" d="M1253.19,49.31c-1.87,0-3.5.49-4.88,1.48-1.39.99-2.54,2.4-3.46,4.24-.92,1.84-1.61,4.01-2.06,6.51-.45,2.5-.68,5.24-.68,8.23,0,4.3.43,7.94,1.3,10.93.87,2.99,2.15,5.26,3.86,6.81,1.71,1.55,3.83,2.32,6.37,2.32,1.92,0,3.78-.3,5.57-.9,1.79-.6,3.59-1.34,5.41-2.22v10.09c-1.87.99-3.82,1.71-5.87,2.18-2.04.47-4.26.7-6.67.7-4.72,0-8.71-1.18-11.95-3.54-3.24-2.36-5.71-5.79-7.39-10.27s-2.52-9.88-2.52-16.18c0-4.38.49-8.41,1.46-12.09s2.42-6.87,4.32-9.57c1.91-2.7,4.24-4.79,6.99-6.29,2.75-1.5,5.91-2.24,9.49-2.24,2.48,0,4.89.31,7.23.92,2.34.61,4.58,1.55,6.75,2.8l-3.36,9.45c-1.6-1.01-3.21-1.83-4.83-2.44s-3.3-.92-5.06-.92Z"/>
    <path class="cls-2" d="M1302.12,98.88l-3.28-14.05h-14.69l-3.28,14.05h-12.29l15.5-58.58h14.65l15.66,58.58h-12.25ZM1296.87,74.89l-3.36-15.09c-.24-1.2-.49-2.44-.74-3.7s-.49-2.5-.7-3.7c-.21-1.2-.41-2.31-.6-3.32-.11.96-.27,2.05-.5,3.26-.23,1.21-.46,2.46-.7,3.72-.24,1.27-.49,2.48-.76,3.62l-3.32,15.21h10.69Z"/>
    <path class="cls-2" d="M1338.87,98.88h-11.33v-48.69h-11.89v-9.85h35.07v9.85h-11.85v48.69Z"/>
    <path class="cls-2" d="M1357.69,98.88v-58.54h11.45v58.54h-11.45Z"/>
    <path class="cls-2" d="M1423,69.53c0,4.62-.45,8.78-1.36,12.49-.91,3.71-2.27,6.89-4.08,9.53-1.82,2.64-4.12,4.66-6.91,6.05s-6.07,2.08-9.83,2.08-7.04-.71-9.83-2.12c-2.79-1.42-5.1-3.44-6.93-6.09s-3.2-5.82-4.1-9.53c-.91-3.71-1.36-7.87-1.36-12.49,0-6.46.83-11.92,2.48-16.4,1.65-4.47,4.14-7.86,7.45-10.17,3.31-2.31,7.42-3.46,12.33-3.46s9.2,1.22,12.47,3.66c3.27,2.44,5.7,5.91,7.29,10.41,1.59,4.5,2.38,9.84,2.38,16.04ZM1390.52,69.53c0,4.4.38,8.11,1.14,11.11.76,3,1.91,5.27,3.44,6.79s3.45,2.28,5.75,2.28,4.24-.75,5.75-2.24c1.51-1.5,2.63-3.74,3.38-6.73.75-2.99,1.12-6.73,1.12-11.21,0-6.7-.83-11.75-2.5-15.13-1.67-3.39-4.25-5.08-7.75-5.08-2.3,0-4.21.76-5.75,2.28s-2.68,3.78-3.44,6.79c-.76,3-1.14,6.72-1.14,11.15Z"/>
    <path class="cls-2" d="M1475.21,98.88h-13.69l-18.82-41.56h-.32c.16,1.92.29,3.74.38,5.45.09,1.71.16,3.3.2,4.79.04,1.48.06,2.85.06,4.1v27.23h-10.57v-58.54h13.61l18.74,40.68h.32c-.11-1.81-.2-3.54-.28-5.17s-.15-3.16-.2-4.6c-.05-1.44-.08-2.8-.08-4.08v-26.83h10.65v58.54Z"/>
    <path class="cls-2" d="M1514.45,98.88l-3.28-14.05h-14.69l-3.28,14.05h-12.29l15.5-58.58h14.65l15.66,58.58h-12.25ZM1509.2,74.89l-3.36-15.09c-.24-1.2-.49-2.44-.74-3.7s-.49-2.5-.7-3.7c-.21-1.2-.41-2.31-.6-3.32-.11.96-.27,2.05-.5,3.26-.23,1.21-.46,2.46-.7,3.72-.24,1.27-.49,2.48-.76,3.62l-3.32,15.21h10.69Z"/>
    <path class="cls-2" d="M1532.38,98.88v-58.54h11.45v48.69h17.22v9.85h-28.67Z"/>
    <path class="cls-2" d="M540.98,115.34c6.25,0,10.88,1.56,13.91,4.68,3.03,3.12,4.54,7.61,4.54,13.45,0,2.88-.37,5.53-1.12,7.93-.75,2.4-1.9,4.48-3.44,6.23-1.55,1.75-3.52,3.1-5.93,4.06s-5.26,1.44-8.57,1.44h-3.56v20.74h-11.45v-58.54h15.62ZM540.18,125.03h-3.36v18.38h2.4c1.89,0,3.5-.33,4.8-.98,1.31-.65,2.29-1.7,2.96-3.14.67-1.44,1-3.32,1-5.65,0-2.96-.65-5.14-1.94-6.53-1.29-1.39-3.25-2.08-5.87-2.08Z"/>
    <path class="cls-2" d="M597.31,156.9c0,3.52-.74,6.62-2.22,9.29-1.48,2.67-3.57,4.75-6.27,6.25-2.7,1.49-5.91,2.24-9.65,2.24-1.71,0-3.36-.11-4.96-.32-1.6-.21-3.16-.56-4.68-1.04s-3.04-1.11-4.56-1.88v-11.49c2.29,1.36,4.66,2.42,7.09,3.18,2.43.76,4.71,1.14,6.85,1.14,1.55,0,2.83-.27,3.84-.82,1.01-.55,1.76-1.3,2.24-2.26s.72-2.03.72-3.2c0-1.31-.25-2.46-.76-3.44-.51-.99-1.39-1.97-2.64-2.94-1.25-.97-2.98-2.08-5.17-3.3-1.63-.93-3.16-1.92-4.58-2.96s-2.68-2.21-3.74-3.5c-1.07-1.29-1.9-2.82-2.48-4.56-.59-1.75-.88-3.82-.88-6.23-.03-3.34.65-6.25,2.02-8.73,1.37-2.48,3.36-4.41,5.96-5.79,2.6-1.38,5.71-2.05,9.31-2.02,2.51,0,4.95.33,7.33.98,2.38.65,4.71,1.58,7.01,2.78l-3.28,9.89c-2.06-1.15-3.96-2-5.73-2.56s-3.46-.84-5.08-.84c-1.36,0-2.49.25-3.38.74s-1.58,1.17-2.06,2.04c-.48.87-.72,1.86-.72,2.98,0,1.39.25,2.56.76,3.5.51.95,1.41,1.88,2.7,2.8,1.29.92,3.08,2.01,5.34,3.26,2.54,1.42,4.67,2.91,6.39,4.48,1.72,1.58,3.04,3.36,3.94,5.35.91,1.99,1.36,4.32,1.36,6.99Z"/>
    <path class="cls-2" d="M620.61,139.16l8.69-23.82h11.93l-15.01,35.92v22.62h-11.37v-22.26l-14.97-36.28h12.01l8.73,23.82Z"/>
    <path class="cls-2" d="M667.94,124.31c-1.87,0-3.5.49-4.88,1.48-1.39.99-2.54,2.4-3.46,4.24-.92,1.84-1.61,4.01-2.06,6.51-.45,2.5-.68,5.24-.68,8.23,0,4.3.43,7.94,1.3,10.93.87,2.99,2.15,5.26,3.86,6.81,1.71,1.55,3.83,2.32,6.37,2.32,1.92,0,3.78-.3,5.57-.9,1.79-.6,3.59-1.34,5.41-2.22v10.09c-1.87.99-3.82,1.71-5.87,2.18-2.04.47-4.26.7-6.67.7-4.72,0-8.71-1.18-11.95-3.54-3.24-2.36-5.71-5.79-7.39-10.27s-2.52-9.88-2.52-16.18c0-4.38.49-8.41,1.46-12.09s2.42-6.87,4.32-9.57c1.91-2.7,4.24-4.79,6.99-6.29,2.75-1.5,5.91-2.24,9.49-2.24,2.48,0,4.89.31,7.23.92,2.34.61,4.58,1.55,6.75,2.8l-3.36,9.45c-1.6-1.01-3.21-1.83-4.83-2.44s-3.3-.92-5.06-.92Z"/>
    <path class="cls-2" d="M728.16,173.88h-11.45v-25.5h-16.26v25.5h-11.45v-58.54h11.45v23.14h16.26v-23.14h11.45v58.54Z"/>
    <path class="cls-2" d="M782.01,144.53c0,4.62-.45,8.78-1.36,12.49-.91,3.71-2.27,6.89-4.08,9.53-1.82,2.64-4.12,4.66-6.91,6.05s-6.07,2.08-9.83,2.08-7.04-.71-9.83-2.12c-2.79-1.42-5.1-3.44-6.93-6.09s-3.2-5.82-4.1-9.53c-.91-3.71-1.36-7.87-1.36-12.49,0-6.46.83-11.92,2.48-16.4,1.65-4.47,4.14-7.86,7.45-10.17,3.31-2.31,7.42-3.46,12.33-3.46s9.2,1.22,12.47,3.66c3.27,2.44,5.7,5.91,7.29,10.41,1.59,4.5,2.38,9.84,2.38,16.04ZM749.54,144.53c0,4.4.38,8.11,1.14,11.11.76,3,1.91,5.27,3.44,6.79s3.45,2.28,5.75,2.28,4.24-.75,5.75-2.24c1.51-1.5,2.63-3.74,3.38-6.73.75-2.99,1.12-6.73,1.12-11.21,0-6.7-.83-11.75-2.5-15.13-1.67-3.39-4.25-5.08-7.75-5.08-2.3,0-4.21.76-5.75,2.28s-2.68,3.78-3.44,6.79c-.76,3-1.14,6.72-1.14,11.15Z"/>
    <path class="cls-2" d="M791.46,173.88v-58.54h11.45v48.69h17.22v9.85h-28.67Z"/>
    <path class="cls-2" d="M869.82,144.53c0,4.62-.45,8.78-1.36,12.49-.91,3.71-2.27,6.89-4.08,9.53-1.82,2.64-4.12,4.66-6.91,6.05s-6.07,2.08-9.83,2.08-7.04-.71-9.83-2.12c-2.79-1.42-5.1-3.44-6.93-6.09s-3.2-5.82-4.1-9.53c-.91-3.71-1.36-7.87-1.36-12.49,0-6.46.83-11.92,2.48-16.4,1.65-4.47,4.14-7.86,7.45-10.17,3.31-2.31,7.42-3.46,12.33-3.46s9.2,1.22,12.47,3.66c3.27,2.44,5.7,5.91,7.29,10.41,1.59,4.5,2.38,9.84,2.38,16.04ZM837.35,144.53c0,4.4.38,8.11,1.14,11.11.76,3,1.91,5.27,3.44,6.79s3.45,2.28,5.75,2.28,4.24-.75,5.75-2.24c1.51-1.5,2.63-3.74,3.38-6.73.75-2.99,1.12-6.73,1.12-11.21,0-6.7-.83-11.75-2.5-15.13-1.67-3.39-4.25-5.08-7.75-5.08-2.3,0-4.21.76-5.75,2.28s-2.68,3.78-3.44,6.79c-.76,3-1.14,6.72-1.14,11.15Z"/>
    <path class="cls-2" d="M899.17,140.93h19.26v30.51c-2.83,1.07-5.75,1.88-8.75,2.42-3,.55-6.12.82-9.35.82-5.04,0-9.26-1.21-12.65-3.64-3.39-2.43-5.96-5.9-7.71-10.41-1.75-4.51-2.62-9.89-2.62-16.14s.98-11.44,2.94-15.92c1.96-4.47,4.83-7.93,8.61-10.39s8.38-3.68,13.79-3.68c2.88,0,5.61.34,8.17,1.02,2.56.68,4.88,1.56,6.97,2.62l-3.48,9.45c-1.71-1.04-3.51-1.85-5.41-2.42-1.9-.57-3.87-.86-5.93-.86-2.99,0-5.5.8-7.55,2.4-2.04,1.6-3.6,3.92-4.66,6.97-1.07,3.04-1.6,6.74-1.6,11.09,0,4.03.43,7.55,1.28,10.57.85,3.02,2.15,5.35,3.88,7.01,1.73,1.66,3.96,2.48,6.69,2.48,1.17,0,2.28-.08,3.32-.24s2-.39,2.88-.68v-13.29h-8.09v-9.69Z"/>
    <path class="cls-2" d="M943.85,139.16l8.69-23.82h11.93l-15.01,35.92v22.62h-11.37v-22.26l-14.97-36.28h12.01l8.73,23.82Z"/>
    <path class="cls-2" d="M1001.83,114.58c2.88,0,5.35.52,7.41,1.56,2.05,1.04,3.62,2.54,4.7,4.5,1.08,1.96,1.62,4.32,1.62,7.07,0,3.23-.79,6.09-2.38,8.59-1.59,2.5-3.76,4.77-6.51,6.83l7.53,9.97c.67-1.39,1.24-2.94,1.72-4.64s.87-3.56,1.16-5.57h11.53c-.51,3.18-1.35,6.45-2.52,9.83-1.17,3.38-2.7,6.51-4.56,9.39l9.41,11.77h-13.85l-3.2-4.44c-1.36,1.09-2.8,2.04-4.32,2.82s-3.14,1.39-4.86,1.8c-1.72.41-3.62.62-5.71.62-3.55,0-6.54-.69-8.97-2.06-2.43-1.37-4.25-3.3-5.47-5.79s-1.82-5.37-1.82-8.65c0-2.43.36-4.63,1.08-6.61s1.81-3.77,3.28-5.39c1.47-1.61,3.3-3.09,5.49-4.42-1.17-1.57-2.13-3.08-2.86-4.52-.74-1.44-1.28-2.93-1.64-4.46-.36-1.54-.54-3.18-.54-4.95,0-2.7.59-5.04,1.78-7.03,1.19-1.99,2.86-3.52,5-4.6,2.15-1.08,4.65-1.62,7.51-1.62ZM998.06,148.57c-.91.8-1.65,1.64-2.22,2.52s-1,1.83-1.28,2.86c-.28,1.03-.42,2.18-.42,3.46,0,2.19.58,4,1.74,5.42,1.16,1.43,2.71,2.14,4.66,2.14,1.47,0,2.78-.29,3.92-.86,1.15-.57,2.24-1.41,3.28-2.5l-9.69-13.05ZM1001.71,122.83c-1.04,0-1.94.42-2.7,1.26-.76.84-1.14,2.16-1.14,3.94,0,1.31.28,2.69.84,4.14.56,1.46,1.35,2.86,2.36,4.22,1.47-1.15,2.56-2.47,3.28-3.96s1.08-3.08,1.08-4.76-.35-2.84-1.06-3.64c-.71-.8-1.6-1.2-2.66-1.2Z"/>
    <path class="cls-2" d="M1052.35,173.88v-58.54h11.45v48.69h17.22v9.85h-28.67Z"/>
    <path class="cls-2" d="M1116.02,173.88h-27.79v-58.54h27.79v9.69h-16.34v13.57h15.17v9.73h-15.17v15.7h16.34v9.85Z"/>
    <path class="cls-2" d="M1153.29,173.88l-3.28-14.05h-14.69l-3.28,14.05h-12.29l15.5-58.58h14.65l15.66,58.58h-12.25ZM1148.05,149.89l-3.36-15.09c-.24-1.2-.49-2.44-.74-3.7s-.49-2.5-.7-3.7c-.21-1.2-.41-2.31-.6-3.32-.11.96-.27,2.05-.5,3.26-.23,1.21-.46,2.46-.7,3.72-.24,1.27-.49,2.48-.76,3.62l-3.32,15.21h10.69Z"/>
    <path class="cls-2" d="M1185.52,115.34c4.51,0,8.25.63,11.23,1.88,2.98,1.25,5.19,3.14,6.65,5.67,1.45,2.52,2.18,5.71,2.18,9.55,0,2.43-.33,4.64-1,6.63-.67,1.99-1.66,3.73-2.98,5.23-1.32,1.5-2.96,2.79-4.9,3.88l13.09,25.71h-12.61l-10.49-22.86h-4v22.86h-11.45v-58.54h14.29ZM1185.28,124.99h-2.6v16.9h2.84c2.83,0,4.94-.74,6.33-2.22,1.39-1.48,2.08-3.72,2.08-6.71,0-2.75-.71-4.76-2.12-6.05-1.42-1.28-3.59-1.92-6.53-1.92Z"/>
    <path class="cls-2" d="M1258.44,173.88h-13.69l-18.82-41.56h-.32c.16,1.92.29,3.74.38,5.45.09,1.71.16,3.3.2,4.79.04,1.48.06,2.85.06,4.1v27.23h-10.57v-58.54h13.61l18.74,40.68h.32c-.11-1.81-.2-3.54-.28-5.17s-.15-3.16-.2-4.6c-.05-1.44-.08-2.8-.08-4.08v-26.83h10.65v58.54Z"/>
    <path class="cls-2" d="M1269.81,173.88v-58.54h11.45v58.54h-11.45Z"/>
    <path class="cls-2" d="M1335.39,173.88h-13.69l-18.82-41.56h-.32c.16,1.92.29,3.74.38,5.45.09,1.71.16,3.3.2,4.79.04,1.48.06,2.85.06,4.1v27.23h-10.57v-58.54h13.61l18.74,40.68h.32c-.11-1.81-.2-3.54-.28-5.17s-.15-3.16-.2-4.6c-.05-1.44-.08-2.8-.08-4.08v-26.83h10.65v58.54Z"/>
    <path class="cls-2" d="M1366.66,140.93h19.26v30.51c-2.83,1.07-5.75,1.88-8.75,2.42-3,.55-6.12.82-9.35.82-5.04,0-9.26-1.21-12.65-3.64-3.39-2.43-5.96-5.9-7.71-10.41-1.75-4.51-2.62-9.89-2.62-16.14s.98-11.44,2.94-15.92c1.96-4.47,4.83-7.93,8.61-10.39s8.38-3.68,13.79-3.68c2.88,0,5.61.34,8.17,1.02,2.56.68,4.88,1.56,6.97,2.62l-3.48,9.45c-1.71-1.04-3.51-1.85-5.41-2.42-1.9-.57-3.87-.86-5.93-.86-2.99,0-5.5.8-7.55,2.4-2.04,1.6-3.6,3.92-4.66,6.97-1.07,3.04-1.6,6.74-1.6,11.09,0,4.03.43,7.55,1.28,10.57.85,3.02,2.15,5.35,3.88,7.01,1.73,1.66,3.96,2.48,6.69,2.48,1.17,0,2.28-.08,3.32-.24s2-.39,2.88-.68v-13.29h-8.09v-9.69Z"/>
    <path class="cls-2" d="M1441.81,156.9c0,3.52-.74,6.62-2.22,9.29-1.48,2.67-3.57,4.75-6.27,6.25-2.7,1.49-5.91,2.24-9.65,2.24-1.71,0-3.36-.11-4.96-.32-1.6-.21-3.16-.56-4.68-1.04s-3.04-1.11-4.56-1.88v-11.49c2.29,1.36,4.66,2.42,7.09,3.18,2.43.76,4.71,1.14,6.85,1.14,1.55,0,2.83-.27,3.84-.82,1.01-.55,1.76-1.3,2.24-2.26s.72-2.03.72-3.2c0-1.31-.25-2.46-.76-3.44-.51-.99-1.39-1.97-2.64-2.94-1.25-.97-2.98-2.08-5.17-3.3-1.63-.93-3.16-1.92-4.58-2.96s-2.68-2.21-3.74-3.5c-1.07-1.29-1.9-2.82-2.48-4.56-.59-1.75-.88-3.82-.88-6.23-.03-3.34.65-6.25,2.02-8.73,1.37-2.48,3.36-4.41,5.96-5.79,2.6-1.38,5.71-2.05,9.31-2.02,2.51,0,4.95.33,7.33.98,2.38.65,4.71,1.58,7.01,2.78l-3.28,9.89c-2.06-1.15-3.96-2-5.73-2.56s-3.46-.84-5.08-.84c-1.36,0-2.49.25-3.38.74s-1.58,1.17-2.06,2.04c-.48.87-.72,1.86-.72,2.98,0,1.39.25,2.56.76,3.5.51.95,1.41,1.88,2.7,2.8,1.29.92,3.08,2.01,5.34,3.26,2.54,1.42,4.67,2.91,6.39,4.48,1.72,1.58,3.04,3.36,3.94,5.35.91,1.99,1.36,4.32,1.36,6.99Z"/>
    <path class="cls-2" d="M1465.12,139.16l8.69-23.82h11.93l-15.01,35.92v22.62h-11.37v-22.26l-14.97-36.28h12.01l8.73,23.82Z"/>
    <path class="cls-2" d="M1520.89,156.9c0,3.52-.74,6.62-2.22,9.29-1.48,2.67-3.57,4.75-6.27,6.25-2.7,1.49-5.91,2.24-9.65,2.24-1.71,0-3.36-.11-4.96-.32-1.6-.21-3.16-.56-4.68-1.04s-3.04-1.11-4.56-1.88v-11.49c2.29,1.36,4.66,2.42,7.09,3.18,2.43.76,4.71,1.14,6.85,1.14,1.55,0,2.83-.27,3.84-.82,1.01-.55,1.76-1.3,2.24-2.26s.72-2.03.72-3.2c0-1.31-.25-2.46-.76-3.44-.51-.99-1.39-1.97-2.64-2.94-1.25-.97-2.98-2.08-5.17-3.3-1.63-.93-3.16-1.92-4.58-2.96s-2.68-2.21-3.74-3.5c-1.07-1.29-1.9-2.82-2.48-4.56-.59-1.75-.88-3.82-.88-6.23-.03-3.34.65-6.25,2.02-8.73,1.37-2.48,3.36-4.41,5.96-5.79,2.6-1.38,5.71-2.05,9.31-2.02,2.51,0,4.95.33,7.33.98,2.38.65,4.71,1.58,7.01,2.78l-3.28,9.89c-2.06-1.15-3.96-2-5.73-2.56s-3.46-.84-5.08-.84c-1.36,0-2.49.25-3.38.74s-1.58,1.17-2.06,2.04c-.48.87-.72,1.86-.72,2.98,0,1.39.25,2.56.76,3.5.51.95,1.41,1.88,2.7,2.8,1.29.92,3.08,2.01,5.34,3.26,2.54,1.42,4.67,2.91,6.39,4.48,1.72,1.58,3.04,3.36,3.94,5.35.91,1.99,1.36,4.32,1.36,6.99Z"/>
    <path class="cls-2" d="M1547.96,173.88h-11.33v-48.69h-11.89v-9.85h35.07v9.85h-11.85v48.69Z"/>
    <path class="cls-2" d="M1594.56,173.88h-27.79v-58.54h27.79v9.69h-16.34v13.57h15.17v9.73h-15.17v15.7h16.34v9.85Z"/>
    <path class="cls-2" d="M1626.39,173.88l-12.09-43.72h-.32c.11,1.63.21,3.3.3,5,.09,1.71.16,3.34.2,4.91.04,1.56.06,2.97.06,4.22v29.59h-10.57v-58.54h15.74l11.45,41h.24l11.61-41h15.74v58.54h-10.93v-29.75c0-1.33.03-2.77.08-4.3.05-1.54.11-3.12.18-4.77.07-1.64.15-3.26.26-4.86h-.32l-12.37,43.68h-9.25Z"/>
    <path class="cls-2" d="M1699.59,156.9c0,3.52-.74,6.62-2.22,9.29-1.48,2.67-3.57,4.75-6.27,6.25-2.7,1.49-5.91,2.24-9.65,2.24-1.71,0-3.36-.11-4.96-.32-1.6-.21-3.16-.56-4.68-1.04s-3.04-1.11-4.56-1.88v-11.49c2.29,1.36,4.66,2.42,7.09,3.18,2.43.76,4.71,1.14,6.85,1.14,1.55,0,2.83-.27,3.84-.82,1.01-.55,1.76-1.3,2.24-2.26s.72-2.03.72-3.2c0-1.31-.25-2.46-.76-3.44-.51-.99-1.39-1.97-2.64-2.94-1.25-.97-2.98-2.08-5.17-3.3-1.63-.93-3.16-1.92-4.58-2.96s-2.68-2.21-3.74-3.5c-1.07-1.29-1.9-2.82-2.48-4.56-.59-1.75-.88-3.82-.88-6.23-.03-3.34.65-6.25,2.02-8.73,1.37-2.48,3.36-4.41,5.96-5.79,2.6-1.38,5.71-2.05,9.31-2.02,2.51,0,4.95.33,7.33.98,2.38.65,4.71,1.58,7.01,2.78l-3.28,9.89c-2.06-1.15-3.96-2-5.73-2.56s-3.46-.84-5.08-.84c-1.36,0-2.49.25-3.38.74s-1.58,1.17-2.06,2.04c-.48.87-.72,1.86-.72,2.98,0,1.39.25,2.56.76,3.5.51.95,1.41,1.88,2.7,2.8,1.29.92,3.08,2.01,5.34,3.26,2.54,1.42,4.67,2.91,6.39,4.48,1.72,1.58,3.04,3.36,3.94,5.35.91,1.99,1.36,4.32,1.36,6.99Z"/>
  </g>
  <g>
    <rect class="cls-2" x="456.67" y="50.7" width="5.8" height="157.07"/>
    <path class="cls-2" d="M394.57,174.23V62.6h-28.46v104.62c-3.04.38-11.57.57-17.27.57-6.26,0-15.56-.19-17.64-.57V62.6h-37s8.92,6.26,8.92,15.75v112.78l1.71.57c.57.19,15.56,4.17,44.02,4.17,25.8,0,49.33-5.12,49.52-5.31l4.93-.95s-8.73-2.09-8.73-15.37ZM382.99,182.58s-8.73,2.47-34.34,2.47c-20.11,0-34.72-2.47-34.72-2.47v-109.17h6.07v103.67s13.47,1.9,28.65,1.9c21.82,0,28.27-1.9,28.27-1.9v-103.67h6.07v109.17Z"/>
    <g>
      <path class="cls-2" d="M128.96,58.13c-29.79,0-53.31,5.5-53.5,5.5l-4.74,1.14,3.98,2.85c4.36,3.23,6.07,6.45,6.26,11.57,0,0-.19,96.56,0,101.69,0,4.74-1.9,7.59-6.26,11l-5.5,3.98h51.8l-5.5-3.98s-6.07-5.12-5.88-11v-34.33h54.64c1.9.19,4.74,1.33,4.74,1.33l3.6,2.28v-35.29l-3.42,2.09s-1.9,1.14-4.55,1.14h-55.02v-31.12s11.19-1.52,17.26-1.52,22.2,1.71,29.79,4.55c8.73,3.42,15.94,9.87,15.94,9.87v-37l-1.9-.38c-.19,0-18.02-4.36-41.74-4.36ZM163.49,81.28s-4.93-2.47-13.09-3.79c-8.35-1.52-11.76-1.9-23.34-2.09-15.94-.38-28.46,1.9-28.46,1.9v51.61h63.18v6.64h-63.18v50.46h-6.83l.19-114.4s13.47-3.04,34.91-3.04c11.57,0,23.34.76,36.62,3.04v9.68Z"/>
      <path class="cls-1" d="M91.97,71.6l-.19,114.4h6.83v-50.46h63.18v-6.64h-63.18v-51.61s12.52-2.28,28.46-1.9c11.57.19,14.99.57,23.34,2.09,8.16,1.33,13.09,3.79,13.09,3.79v-9.68c-13.28-2.28-25.04-3.04-36.62-3.04-21.44,0-34.91,3.04-34.91,3.04Z"/>
    </g>
    <path class="cls-1" d="M376.92,177.08s-6.45,1.9-28.27,1.9c-15.18,0-28.65-1.9-28.65-1.9v-103.67h-6.07v109.17s14.61,2.47,34.72,2.47c25.61,0,34.34-2.47,34.34-2.47v-109.17h-6.07v103.67Z"/>
    <g>
      <path class="cls-2" d="M283.68,175.18v-30.74c0-6.45-4.36-8.35-4.36-8.35l-59.01-36.43v-12.9c3.6-.57,7.02-1.14,22.01-.57,9.68.38,16.51,1.52,22.77,3.6,10.06,3.23,13.85,6.26,13.85,6.26l4.74,3.98-.19-37.38-2.28-.38c-.76-.19-21.82-4.17-44.21-4.17-28.27,0-48.76,5.12-49.71,5.31l-5.69,1.33,4.74,3.61c3.79,2.85,5.5,5.88,5.69,10.43l-.19,26.37c0,8.35,6.26,11.76,6.26,11.76l57.11,35.67v14.61c-3.41.57-8.16,1.14-22.96.57-9.87-.38-15.37-1.71-21.82-3.6-10.43-2.85-18.59-10.25-18.59-10.25v37.19l2.28.57c.95.19,20.87,4.17,43.45,4.17,28.27,0,49.71-5.12,50.66-5.31l5.88-1.33-4.93-3.6c-3.79-2.85-5.31-5.88-5.5-10.43ZM272.67,182.39s-12.9,2.85-33.01,2.85c-11.19,0-24.1-.76-36.62-2.85v-9.11s4.93,2.28,12.52,3.6c7.97,1.33,12.9,1.71,23.72,1.9,15.18.38,26.94-1.71,26.94-1.71v-24.85c0-5.5-5.5-8.54-5.5-8.54l-52.36-32.82s-5.31-3.23-5.31-9.3v-29.98s11.76-2.85,31.87-2.85c11,0,24.85.76,37.57,2.85v9.11s-4.74-2.28-12.33-3.6c-7.97-1.52-14.04-1.71-25.04-1.9-14.99-.38-25.8,1.71-25.8,1.71v22.58c0,5.12,5.12,7.97,5.12,7.97l53.31,33.01s4.93,2.66,4.93,8.54v33.39Z"/>
      <path class="cls-1" d="M267.74,140.46l-53.31-33.01s-5.12-2.85-5.12-7.97v-22.58s10.81-2.09,25.8-1.71c11,.19,17.08.38,25.04,1.9,7.59,1.33,12.33,3.6,12.33,3.6v-9.11c-12.71-2.09-26.56-2.85-37.57-2.85-20.11,0-31.87,2.85-31.87,2.85v29.98c0,6.07,5.31,9.3,5.31,9.3l52.36,32.82s5.5,3.03,5.5,8.54v24.85s-11.76,2.09-26.94,1.71c-10.81-.19-15.75-.57-23.72-1.9-7.59-1.33-12.52-3.6-12.52-3.6v9.11c12.52,2.09,25.42,2.85,36.62,2.85,20.11,0,33.01-2.85,33.01-2.85v-33.39c0-5.88-4.93-8.54-4.93-8.54Z"/>
    </g>
  </g>
</svg>